/* XPM */
static char *_04fc15d6b214bdc9a494e846fe3e028b6gIAJk8uYWBuYBe[] = {
/* columns rows colors chars-per-pixel */
"64 64 226 2 ",
"   c #52552D",
".  c #50562D",
"X  c #525E30",
"o  c #65552F",
"O  c #675833",
"+  c #715F36",
"@  c #4D6331",
"#  c #4D6933",
"$  c #546637",
"%  c #506C34",
"&  c #477637",
"*  c #557438",
"=  c #766537",
"-  c #72643B",
";  c #7D6A3C",
":  c #6B733C",
">  c #77763E",
",  c #557744",
"<  c #597A57",
"1  c #7A6D45",
"2  c #7F7B42",
"3  c #7C7844",
"4  c #707053",
"5  c #6E7D60",
"6  c #7B7C64",
"7  c #857028",
"8  c #836D34",
"9  c #836A3C",
"0  c #8D7634",
"q  c #897539",
"w  c #8C763B",
"e  c #967C39",
"r  c #897441",
"t  c #85774A",
"y  c #8E7D4C",
"u  c #947D44",
"i  c #9D7F48",
"p  c #877D57",
"a  c #857F64",
"s  c #56873E",
"d  c #588D4E",
"f  c #738241",
"g  c #5C9565",
"h  c #6C8969",
"j  c #758669",
"k  c #9A841E",
"l  c #A58F1C",
"z  c #BAA218",
"x  c #9A8135",
"c  c #96813E",
"v  c #9B833B",
"b  c #A68C2A",
"n  c #AE9427",
"m  c #B09721",
"M  c #B0982B",
"N  c #B99D2C",
"B  c #A58A36",
"V  c #A2853E",
"C  c #A58D3D",
"Z  c #A88C3A",
"A  c #AB9836",
"S  c #AD913D",
"D  c #B49936",
"F  c #B3953C",
"G  c #B49A3C",
"H  c #B8A224",
"J  c #BDA53A",
"K  c #C4AC0F",
"L  c #D5BC0E",
"P  c #C4AC13",
"I  c #CCAF1F",
"U  c #C9B31C",
"Y  c #D6BE11",
"T  c #D8BB1C",
"R  c #C3AB2D",
"E  c #D0B828",
"W  c #C3AA33",
"Q  c #C5A53D",
"!  c #D7C116",
"~  c #D8C117",
"^  c #DBC31B",
"/  c #E6CC0A",
"(  c #E8CF0E",
")  c #E9D00F",
"_  c #F9DD05",
"`  c #F6DA0A",
"'  c #EBCF19",
"]  c #E9D010",
"[  c #D9C431",
"{  c #898345",
"}  c #9E8445",
"|  c #978549",
" . c #9C8349",
".. c #8A845B",
"X. c #9A8B54",
"o. c #988758",
"O. c #A48D44",
"+. c #AC8D43",
"@. c #A0874B",
"#. c #A8874B",
"$. c #A38C4B",
"%. c #AA8A4D",
"&. c #AB9445",
"*. c #A99645",
"=. c #A4924D",
"-. c #AB944A",
";. c #B39A43",
":. c #B39946",
">. c #BB9B44",
",. c #B6944C",
"<. c #B49B4C",
"1. c #A38C51",
"2. c #AE8F52",
"3. c #A49354",
"4. c #AC9252",
"5. c #A99757",
"6. c #A3925B",
"7. c #AB9A5C",
"8. c #B59252",
"9. c #B39B54",
"0. c #B39F5C",
"q. c #BA9C59",
"w. c #B7A047",
"e. c #BBA443",
"r. c #B6A14B",
"t. c #BCA44E",
"y. c #BEAB4C",
"u. c #A5A155",
"i. c #B7A657",
"p. c #BAA552",
"a. c #B4A25B",
"s. c #B9A45C",
"d. c #888466",
"f. c #958C65",
"g. c #9E9262",
"h. c #939076",
"j. c #A59967",
"k. c #AD9D63",
"l. c #B59D67",
"z. c #A69A77",
"x. c #ADA166",
"c. c #B4A464",
"v. c #BAA965",
"b. c #B6A469",
"n. c #BAAB6B",
"m. c #BEB36C",
"M. c #AAA173",
"N. c #B8A976",
"B. c #BDB175",
"V. c #BFB47B",
"C. c #C19B57",
"Z. c #C5A847",
"A. c #CDB24C",
"S. c #D5B342",
"D. c #D5B549",
"F. c #C1AB52",
"G. c #C2A55B",
"H. c #CEA65D",
"J. c #CDB455",
"K. c #CBB65B",
"L. c #D0B75E",
"P. c #C3A967",
"I. c #D0AB66",
"U. c #D1AD6D",
"Y. c #C5B261",
"T. c #C4B36A",
"R. c #C8B769",
"E. c #D2BD60",
"W. c #C1A571",
"Q. c #C6AA77",
"!. c #C7B976",
"~. c #CDB07A",
"^. c #D1B173",
"/. c #D3B47C",
"(. c #D7C15A",
"). c #E7C345",
"_. c #E5CC5A",
"`. c #D8C468",
"'. c #D3C475",
"]. c #DED072",
"[. c #E2CD71",
"{. c #F1DC74",
"}. c #989A86",
"|. c #ADA484",
" X c #B6A789",
".X c #B7B28B",
"XX c #BAAD91",
"oX c #B8B395",
"OX c #ADABA3",
"+X c #BBB5A7",
"@X c #C0AE8A",
"#X c #C9B688",
"$X c #DABC85",
"%X c #D9BC89",
"&X c #CDBA94",
"*X c #C6B799",
"=X c #C5B898",
"-X c #CABA99",
";X c #D4BD92",
":X c #C7BFA7",
">X c #BEC3AB",
",X c #D2C294",
"<X c #D4C597",
"1X c #D2C09C",
"2X c #E0C799",
"3X c #C5C6AB",
"4X c #D7C5A4",
"5X c #D9C6A2",
"6X c #DAD1AD",
"7X c #CCC4B1",
"8X c #CDC9BD",
"9X c #D5CAB2",
"0X c #D6CDBB",
"qX c #E0CCA7",
"wX c #E6D2AD",
"eX c #E4D4B7",
"rX c #EAD8B9",
"tX c #DFD7C3",
"yX c #D2D3D0",
"uX c #E7DCC6",
"iX c #E2DFD4",
"pX c #EBE0CA",
"aX c #F0E3CD",
"sX c #ECE8DB",
"dX c #F3E9D7",
"fX c #F5F0E7",
/* pixels */
"| 9.n.=.H.l.T Y ( Y W %X$X$X#XN.k.<X$X/.G ( ( ( ( / R $Xr.} X.o.| <.n.$.H.q.T Y ( Y W #X$X$X#XN.N.2X/./.S / / _ ( / W $X>.} 3.p ",
"c.Q Y.B H.l _ / Y L L F H.C.Y.e 8.C.H.H.I _ ( _ ( / ^ H.B a.&.Z c.Q P.B H.l ` ( Y L ( F H.C.I.e 2.C.H.H.E _ / _ ( / ' H.B a.-.Z ",
"T.4.| C.C.K L _ ] / L n H.B F.Z  .-.H.H.N L / L / _ m H.H.:.J.O.T.3.} q.C.P L _ ( / Y m H.B Z.O. .,.H.H.n / / Y ( / m H.I.:.J.O.",
">.i H.H.i / / L ( / / T H.H.O.N W C.H.H.C.P _ L / L Z.H.H.H.:.Z.>.O.H.H.i L / / ( / / I H.H.O.N Q Z.H.H.C.L _ L ( / >.H.H.H.>.Q ",
"o.W.~.U.C.Y _ / ] _ / n H.H.H.H.~.H.U././.W.F Q a.2.~./.~.~.~.W.6.W.^.U.C.Y _ ( ( _ ( M H.H.H.H.^.H.U././.W.F J a.4.^.$XQ.~.~.W.",
"g < 5 wXuXk.^ ] ] ) ) c.wXwXwX8X#X|.wXwXwXwXwXwXwXwXwXwXwX&X5 < g < j wXuXk.^ ( ( ( _ c.wXwXwX9X*X|.wXeXwXwXwXwXwXwXwXwXwX-X5 < ",
"h.-.H.H.H.H.F m L P B H.I.8.H.~.R.S.v - ; w 4.O.I.H.H.H.H.C.{ ..d.2.H.H.H.H.V m L K B H.H.8.H.#XF.D.e - 1 q $.+.I.H.H.H.H.C.{ ..",
"wXH.H.H.q.2.H.H.+.i H.H.8.  8.;XY.G | O.; Z.G.V H.H.H.H.+.H.H.$XwXI.H.H.8.9.H.H.&. .H.H.,.$ ,.,XY.B -.O.9 Q a.@.H.H.H.H.+.H.H.$X",
"=XH.G.4.w q.H.H.H.H.H.H.> # } $X3.`.b.Q (.1.*.H.H.H.C.$.F.8.H.$X*XC.C.q.w 0.H.H.H.H.H.H.: & } /.7.`.v.S.G.| :.H.H.H.C.$.F.8.H.$X",
"f.H.Z a.Q n.,.H.H.H.H.H.f d u.$X$X#.G 0 F.C C.I.H.1.O S.<.%.H.$Xf.I.Z $.Q n.8.H.H.H.H.H.t s u.,X$XO.F 0 F.v C.H.H.$.O S.F. .H.$X",
"x.7X9XT.'.].:X0XuXdXeX=Xh.< 7XpXfXdXrX4X=XwX9X+Xa a X.j.!. X*X&Xk.:X9XT.'.].3X0XtXdXuX=Xz.< 7XsXfXdXrX4X*XwX9X:X6 a o.j.!. X*X1X",
"Y O.H.H.H.H.H.8.i #.I.H.C.=.P.1X-XH.H.H.H.H.:.$.).o.;.Z e.H.+.M Y O.H.H.H.H.H.<. .#.H.H.q.$.H.<X-XH.H.H.H.H.&.| ).X.F O.e.H.&.A ",
"/ / b C.H.C.v { F.L.F.V H.H.H.&Xh.8.9 ; f %.,.J p.X.p.q C.F / / _ ( b C.H.C.v } F.K.r.u H.H.H.1Xh.8.9 9 > %.,.e.<.1.p.8 C.D / / ",
"/ / _ >.H.;.c >.} i.4.p.C.H.H.&X|.H.r X X * C.q.V v #.H.I.P / _ / / _ :.H.:.c >.O.0.5.y.C.H.H.-X|.C.3   X * C.C.C e #.H.H.P / _ ",
"/ / / B H.O.=.r O - F c Z.H.H.&X{ H.H.q.t @ ; H.C.C.H.H.i _ L Y / / / B H.$.$.9 - - F c Z.H.H.5Xw H.H.C.3 % = I.C.C.I.H.i ` / / ",
"T / / k.&X=.D...p t j.!.j.1X,X=.( H a.wXwXwXwX#Xg.@XqX&XN.Y ( ( ^ / / k.&XO.S...p t 6.#Xj.;X&X3.] H l.wXwXwXwX#Xf.!.5X&XN.Y / / ",
"_ / z W.%Xp.g.7.b.a.).v.l.~.R / U Y / -.$X$Xb.Q.t.6.~.$X$XG L / ( ( m N.$Xp.j.5.c.3.).T.l.~.R / U ! ] *.$X$Xl.B.Z.6.~.$X$XF L / ",
"L N %.H.H.%.r.Z.j.X.[.-.H.A / K _ _ L z C.H.B K.s.[.O.H.I.C.A b L H %.H.H.#.e.<.6.X.[.+.H.F / K _ _ L z C.H.Z K.s.'.F H.H.C.D n ",
"8.H.H.H.H.H.8.S !.} V H.H.R / / P / L _  .H.H.a.c.S H.H.H.H.H.H.8.H.H.H.H.H.8.&.!.} V H.H.N / / L / L _ i H.I.b.c.+.H.H.H.H.H.H.",
"H.H.H.H.$.u.@.H.wXH.H.H.H.n / / L _ L / D.H.H.H.wXH.} %.i H.H.H.H.H.H.H.=.u.$.^.wXH.H.H.I.m / / L _ L / S.H.H.U.wXH.@.q.i H.H.H.",
"g.l.-., , % & t uXH.^.^.I.:./ _ _ / _ / i H.P.y rXI.Z.e x 1 O ; 6.b.4., * # & t rXP.^.~.H.&./ _ _ / / / i H.v.y eXI.F.e e 1 O 9 ",
"B.V.aX.X|..X4XeXfXuXdXdXdXuXy.^ ( ] ( *.XX-Xh.j fXwXk.T.k.1.3.-.N.N.aX.XoX.X5XeXdXuXdXdXdXuXF.( ] ( ] A XX-Xh.h dXwX7.v.k.| 3.| ",
"Q q.H.H.H.H.4.=.wXH.H.%. .H.H.V N P b C.H.H.* , uXH.%.y.T.0 w T.e.C.H.H.H.H.4.=.wXH.H.%.@.H.H.O.N P b C.I.H.# , wXH.,.Z.Y.0 w c.",
"C.H.H.H.C.= 8 5.wXC.9.w | 8.H.H.H.e H.H.C.P.* % aXH.H.C.V S t.A C.H.H.H.C.= 0 5.wXC.9.8  .C.H.H.H.w I.H.C.H.* $ rXH.H.q.V ;.p.b ",
"H.H.H.%.+ w w _. XV {.Z.a.Z.I.H.H.H.H.1.*.H.> 4 wXH.H.H.H.H.H.H.H.H.H.4.- w v _.@Xe {.Z.9.:.H.H.H.H.I.1.O.H.: 4 wXH.H.H.H.H.H.H.",
"H.C.u x c.G a.O.5XH.V J e.>.H.H.H.C.+ e p.i H.$XwXG.H.:.C.G.H.H.H.C. .x 5.F a.O.5XH.@.Q e.%.H.H.H.C.+ e y.i H.$XwXH.H.,.H.H.H.H.",
"dXN.B.D.z.v.T.}.sX0XdXuXeX7X7X0X X4 f.p M.+XtXuXfXdX+Xf.z.yXyXdXdX!.B.D.N.n.v.|.sX0XdXuXeX7X7X0X*X4 ..p M.+XuXuXfXdX3Xf.z.8XyXaX",
"wXC.x L.=.;.8.C.H.I.H.H.H.H.C.o.:.y F } E.8.H.8.I.S c.Z G.2.H.$XwXC.e J.$.O.8.q.H.I.H.H.H.H.C.o.O.r ;.e E.,.H.,.H.*.c.B P.2.H.$X",
"B.,.H.q.C.H.H.i 8.C.i  .2.H.9 a.Z.7.<.B } H.H.i H.@.e.(.(.,.%.p.Q.8.H.C.G.H.H. .,.C.i | %.I.q k.Z.7.<.x i H.H.i H.+.e.A.`.&.%.p.",
"'.`.e H.H.H.I. .H.;   @ # @.I.2.y.O.S 8.H.H.H.k ,.H.H. .%.Z w.v.'.`.$.H.H.H.H.i H.;   X # %.H.3.t.C C C.H.H.H.l ,.H.H.i #.v r.v.",
"j.| 9.} H.H.H.e ,.H.C.> & $ ,.$X$XH.H.H.H.+.m / P +.H.H.+.=.0 y j.| E.V H.H.H.e #.H.C.> & $ 8.$X$XH.H.H.H.+.m / P %.H.H.O.-.0 y ",
"f.9.a.K.&X&X@XR E 5.@X$XQ.z.&X:XuX&X&X&XP.L _ / T Y 5.&Xc.o.X.4 f.<.a.Y.&X&XXXR E 5.@X$XQ.z.&X9XuX&X&X&XP.Y _ ( ] Y 5.&Xn.o.X.4 ",
"y r.B.x.$XW.T ~ / L R ~.$X$X~. Xz.$X$X$XS / / _ / / R U.G O.=...p <.B.x.$XW.E ^ ( L R ~.$X$X~. X*X$X$X$XG / / _ / / W I.G +.9.p ",
"N.Q P.B H.l ( / L L L F H.Z.T.} n.q.H.H.I _ / _ / / ^ H.Z P.-.&.n.Q 9.V H.l / / L L L F H.C.T.} v.q.H.H.R _ / _ / / ' H.Z s.-.O.",
"!.s.} q.C.K L _ / / L m H.B F.3.j.-.H.H.N L / L / _ n H.H.:.J.3.!.s.} C.C.P Y _ / / Y n H.B F.3.j.-.H.H.N / / L / / m H.I.:.K.3.",
"K.O.H.H.i / / L / / / R H.H.V r.E.,.H.H.C.P _ L / / >.H.H.H.%.J.Y.O.H.H.i / / ( / / / T H.H.V y.L.,.H.H.C.P _ Y / / G H.H.H.+.J.",
"z.C.H.H.q.L _ / / _ / M ~.U.H.=XwXI.~.~.~.W.:.J A l.^.I.H.^./..Xz.C.H.H.C.L _ / / _ / M ~.U.H.&XwXI./.~.^.W.:.N v l.R.I.H.^./. X",
"d < 6 wXrX3.Y ( ] ( ] c.dXdXdX0X-X+XdXrXwXwXeXsXdXwXwXwX5X=X4 , d , j rXwX3.! ( ] ( _ c.dXdXdX0X:X+XdXrXwXwXwXsXdXwXwXwX-X-X4 , ",
"r %.H.H.I.H.F M Y K B H.H.9.H.C.G.A.Z - 9 q 1.5.wXH.H.H.I.C.{ 3 r 2.H.H.H.H.F M Y P B H.H.9.H.q.y.A.e - 9 q 1.7.wXH.H.H.H.q.{ t ",
"P.H.H.H.8.2.H.H.-X@.H.H.8.  ,.H.F.;.-.O.9 Z.a.1.wXH.H.H.v H.H.H.C.I.H.H.8.4.H.H.#X@.H.H.8.X ,.H.y.C -.*.; Z.a.1.wXH.H.H.V H.H.I.",
"8.H.C.0.w q.H.H.rXH.H.H.> % @.H.V `.b.S.L.X.A U.eXH.C.$.p.8.H.H.8.H.C.P.w 9.H.U.wXH.H.H.3 % } H.V `.n.E G.y >.U.wXH.C.%.p.8.H.H.",
"9 H.C p.Q n.8.H.wXH.H.H.f s u.H.H.#.S 0 A.v C.I.wXu o S.<. .H.H.9 H.Z %.e.n.8.U.wXH.H.H.f s u.I.H.%.+.0 F.C C.^.wX1.O Q G. .H.H.",
"s.iXoXv.'.L.z.7XfX7XpXdX}.< 7X0X7X7X7X*XwX7XuX:Xh.d.X.o.T.|.wX1Xj.pXoXv.'.(.z.7XsX7XpXdX}.< 7X0X7X7X7X-XwX7XpX+Xh.a X.j.T.|.eX=X",
"L S H.H.H.H.H.l.|.%.H.H.q.$.I.H.8.H.H.H.H.H.-.j.).X.:.O.w.H.+.m L C H.H.H.H.H.l.|.%.H.H.C.=.H.H.8.H.H.H.H.H.&.7.).o.:.Z e.H.S m ",
"/ / b C.H.q.v | T.F.<.+.H.H.H.H.9 @.9 ; f %.,.F./.X.p.e C.A / / _ / b q.H.C.v | R.L.r.O.H.H.H.H.r i 9 ; f %.,.F.R.X.<.e C.B / / ",
"/ / _ G H.;.c :.j.a.a.p.C.H.H.H.i H.3 X X * C.^.b.e %.H.H.P / _ / / _ >.H.F c r.j.i.5.p.q.H.H.H.i H.3 X @ * C.~.b.e %.H.H.P / _ ",
"/ / / Z H.O.$.- 4 1 G v Z.H.H.H.7 H.H.C.q X - $X5XC.H.H.i _ L L / / / B H.O.} 1 4 O >.e Z.H.H.H.7 H.H.C.r # = $X4XC.H.H. ._ / / ",
"L / / a.,X=.D...f.t 6.N.o.%X~.:./ H 3.6XwX1X&X*Xz.M.qXwXXXY ( ( ! / / x.$X=.D...d.| 6.N.o.$X~.-./ N 3.wXwX1X&X=Xz.M.qXwXXX! / / ",
"_ ( H W.$Xi.j.v.a.v.).T.l.~.R / U L / *.$X$Xc.n.Z.3.~.$X$XG Y ( _ / H N.$Xp.j.7.0.7.).T.n.~.R ( U L / *.$X$XP.n.Z.3.~.$X$XF Y ( ",
"~ H #.H.H.%.:.t.c X.[.*.H.F / Y _ _ L z C.H.e J.J.'.+.H.H.q.D D ' N #.H.H.%.t.Z.w o.[.&.H.B / Y _ _ L z C.H.B J.J.'.+.H.H.C.D D ",
"-XH.H.H.H.H.8.A t.} V H.H.R / / Y / L _ i H.H.,.B S I.H.H.H.H.$X*XH.H.H.H.H.8.*.t.@.i H.H.N / ( ! / L _ @.H.H.,.B F H.H.H.H.H.$X",
"wXH.H.H.=.3. .H.H.H.H.H.H.n / / Y _ L / D.H.H.H.H.H.@.#.i H.H.$XwXH.H.H.$.u. .H.H.H.H.H.H.n / / L _ L / S.H.H.H.H.H.@.#.i H.H.$X",
"z.,.-., * # # t H.H.H.H.H.F / _ _ / _ ( i H.C.r ~.^.<.e 8 ; o y M.8.%., * # # 3 H.H.H.H.H.F / _ _ / / / i H.C.y ~.^.y.e 0 1 o y ",
".Xk.dX>X3X>XuXdXaXdXuX1X*X-Xy.^ ( ( ( A *XXXj h dXdXN.c.b.7.k.7.!.j.dX>X3X3XuXdXaXdXuX-XXX-Xy.^ ) ) ] S =XXXh h dXdXN.n.k.6.k.7.",
"F.C.H.H.H.H.4.S H.H.I.$.X.H.H.b.q.K b q.H.H.% % H.H.#.Z.T.0 0 !.F.q.I.H.H.H.2.O.H.H.H.+.$.H.I.b.t.P n C.H.H.% # H.H.#.Z.P.0 w N.",
"~.H.H.H.C.- 8 *.H.C.9.q } 8.H.&XwXr H.H.C.H.* @ H.H.I.C.V G p.*.~.H.H.H.C.+ 8 *.H.C.v.8 } 8.I.;XwXq I.H.q.H.* @ H.H.H.q.C G r.r.",
"$XH.H.%.- r v D.%.V {.Z.9.Z.I.&XwXI.H.$.-.H.> : H.H.H.I.H.H.H.$X$XH.H.-.+ r c D.#.@.{.S.s.>.H.-XwXH.H.1.-.H.> > H.H.H.H.H.H.H.$X",
"<Xq.} v c.G 4.O.C.H.V Q D +.H.&XwX8.+ e F.i H.I.H.H.H.,.G.H.H.$X$XC.} Z c.G a.O.C.H.e Q D %.I.&XwX8.+ x F.i H.I.H.H.H.,.G.H.H.%X",
"sXv.B.D.z.a.Y.h.uX7XuXyXiXdX7XiX7X4 f.d.j.OXyXdXuXrX<Xo.f.eXeXeXeXc.m.D.N.5.K.h.uX7XtXyXiXdX7XiX7X4 f.d.j.OXyXdXdXrX6Xg.h.uXiXsX",
"H.q.x J.=.C 8.P.pXH.H.H.H.H.C.u F X.Z c (.8.H.b.wX&.v.G G.2.H.H.H.C.e K.=.;.8.N.wXH.C.H.H.H.C.$.Z p >.e K.,.I.l.wXO.c.G Y.8.H.H.",
"F 8.I.C.C.H.H.i 0XC.| | %.H.e a.Z.6.G.B  .H.I.o.wX,.e.(.`.:.,.F +.8.H.C.C.H.H.X.9XC.i | #.H.e i.Z.7.<.B i H.H.6.wX} Z._.`.:.,.F ",
"E.`.$.H.H.H.H.i uX;   . # X.H.V J C v C.H.H.H.l #XH.H.i $.v :.s.L.`.%.H.H.H.I.$.wX;     # i I.O.G &.v C.H.C.H.m #XH.H.i #.v <.s.",
"@. .<.+.H.H.I.e #XH.C.w & X ,.H.H.H.H.I.H.S m / Q +.H.H.+.9.0 u $.| F.O.H.H.H.u XXH.C.3 & X 8.H.H.H.H.H.H.Z.m / W &.H.H.O.$.0 r ",
"d.s.0.Y.&X&X#XR [ 4.@X&X@Xz.&X;X;X&X&X$Xq.L _ / ! ~ l.;Xn.y 3 1 d.a.l.L.wX&XXXW [ -.@X&X@Xz.&X;X;X&X&X$Xs.Y _ ( ] ~ 5.&Xv.y y 1 "
};
