/* XPM */
static char *_dd034eaec734923edd0a029cb44515drHoEqaFzFcMT2Lzb[] = {
/* columns rows colors chars-per-pixel */
"64 64 228 2 ",
"   c #1D271A",
".  c #1E2C1B",
"X  c #272B1C",
"o  c #23341D",
"O  c #2A321E",
"+  c #243A1F",
"@  c #2B3A21",
"#  c #3B3A23",
"$  c #443E23",
"%  c #583824",
"&  c #613625",
"*  c #683E2B",
"=  c #294623",
"-  c #2E5326",
";  c #2D5928",
":  c #355629",
">  c #365928",
",  c #2D682D",
"<  c #34652B",
"1  c #39652B",
"2  c #3C6B2C",
"3  c #36712F",
"4  c #3A712E",
"5  c #3A6C31",
"6  c #2F7130",
"7  c #347C34",
"8  c #387834",
"9  c #66601B",
"0  c #75721B",
"q  c #4C4D2E",
"w  c #544B2B",
"e  c #45562B",
"r  c #475636",
"t  c #5E5733",
"y  c #6A432B",
"u  c #7A4A2D",
"i  c #695C35",
"p  c #7C5132",
"a  c #43662D",
"s  c #467B2D",
"d  c #517529",
"f  c #476932",
"g  c #586B38",
"h  c #437432",
"j  c #487836",
"k  c #597937",
"l  c #706B34",
"z  c #5D5F4E",
"x  c #587547",
"c  c #696C48",
"v  c #E93D38",
"b  c #926A25",
"n  c #90683D",
"m  c #DC4B3A",
"M  c #CA523D",
"N  c #DB523B",
"B  c #EC4B37",
"V  c #E65938",
"C  c #F25034",
"Z  c #ED6D35",
"A  c #F07135",
"S  c #F57933",
"D  c #E63B41",
"F  c #9B7946",
"G  c #92734A",
"H  c #A57C48",
"J  c #937563",
"K  c #D75545",
"L  c #CF734D",
"P  c #E57C4D",
"I  c #338136",
"U  c #3D8536",
"Y  c #48842F",
"T  c #56852E",
"R  c #488437",
"E  c #4C8B30",
"W  c #538735",
"Q  c #539431",
"!  c #559731",
"~  c #589B32",
"^  c #67992D",
"/  c #71942B",
"(  c #659A37",
")  c #5BA233",
"_  c #76A62C",
"`  c #63A237",
"'  c #74A13C",
"]  c #528545",
"[  c #7C8742",
"{  c #789748",
"}  c #6D8B51",
"|  c #76935A",
" . c #7CA543",
".. c #7CAD57",
"X. c #7B9460",
"o. c #7AA26F",
"O. c #91921C",
"+. c #AD9519",
"@. c #B8BB1F",
"#. c #8C9325",
"$. c #AA9822",
"%. c #91A926",
"&. c #CEBE1B",
"*. c #ECBD2A",
"=. c #EACD15",
"-. c #ECD315",
";. c #F8D914",
":. c #DCC527",
">. c #ECE72B",
",. c #F4EA2E",
"<. c #F7EB30",
"1. c #F9EC31",
"2. c #F7EA38",
"3. c #F9ED3C",
"4. c #8C8B47",
"5. c #8C8D4F",
"6. c #978B4A",
"7. c #96924B",
"8. c #A6864C",
"9. c #A0954E",
"0. c #AC8E50",
"q. c #A99755",
"w. c #B79654",
"e. c #B89954",
"r. c #8CA344",
"t. c #98A554",
"y. c #A8A54F",
"u. c #BDA557",
"i. c #8F936C",
"p. c #AC8E6F",
"a. c #97AA69",
"s. c #A6B07B",
"d. c #D09A4A",
"f. c #D08E53",
"g. c #C79857",
"h. c #C59F59",
"j. c #D9B44B",
"k. c #C6A55A",
"l. c #CEA65D",
"z. c #D2AC5A",
"x. c #D9B759",
"c. c #D98D6A",
"v. c #CAAC6A",
"b. c #D0AB66",
"n. c #D1AD6D",
"m. c #D0AF74",
"M. c #C7B679",
"N. c #CEB079",
"B. c #D1B173",
"V. c #D3B47D",
"C. c #D5BD7D",
"Z. c #DFC14C",
"A. c #E3C957",
"S. c #EEDB53",
"D. c #F7EA46",
"F. c #F9EE49",
"G. c #FAEE56",
"H. c #DEC163",
"J. c #E4CB6B",
"K. c #ECD968",
"L. c #E8D373",
"P. c #FAF063",
"I. c #F1E273",
"U. c #F3E57A",
"Y. c #FBF270",
"T. c #FBF37D",
"R. c #99A285",
"E. c #B0B48E",
"W. c #B9AD91",
"Q. c #C8B385",
"!. c #D6BA85",
"~. c #DABC85",
"^. c #D9BD8B",
"/. c #CDBA94",
"(. c #C6B79A",
"). c #C9BA9C",
"_. c #D4BD92",
"`. c #E3A794",
"'. c #C3BBA6",
"]. c #ADC88D",
"[. c #DDC28F",
"{. c #C6C095",
"}. c #D3C09C",
"|. c #DAC498",
" X c #E9D58B",
".X c #F3E587",
"XX c #FCF48A",
"oX c #FCF597",
"OX c #FCF698",
"+X c #CCC2A8",
"@X c #D9C6A1",
"#X c #D8C9AA",
"$X c #CDC4B0",
"%X c #CFC9B9",
"&X c #D8CBB2",
"*X c #D6CEBA",
"=X c #DED2BA",
"-X c #E2CDA5",
";X c #E0CEAB",
":X c #EAD9A5",
">X c #E6D2AD",
",X c #E6D7B8",
"<X c #EAD9B9",
"1X c #D9E0BF",
"2X c #FCF7A4",
"3X c #FDF8B1",
"4X c #FDF9BE",
"5X c #CCCECA",
"6X c #DFD7C3",
"7X c #D8D4C5",
"8X c #D8D8D2",
"9X c #EDDDC2",
"0X c #E6DCC8",
"qX c #E2DFD4",
"wX c #EDE1C7",
"eX c #E9E0CC",
"rX c #F0E3CC",
"tX c #FEFAC2",
"yX c #FEFBCC",
"uX c #ECE6D9",
"iX c #F3E9D7",
"pX c #FCF8D1",
"aX c #FEFCD8",
"sX c #EFEEE8",
"dX c #F6EEE0",
"fX c #FCF8E8",
"gX c #FEFDF3",
"hX c white",
/* pixels */
"~.~.~.B.l.V.b._.9X!.-X[.!.~.[.-X~.[.~.V.~.~.~.-X9X~.~.~.~.~.~.~.~.~.~.B.l.B.b._.9X!.-X^.~.~.[.-X~.[.~.V.~.~.~.>X9X~.~.~.~.~.~.~.",
"l.l.l.l.l.l.l.V.>Xl.l.l.l.l.l.l.l.l.l.l.l.l.l.~.rXl.l.l.l.l.l.l.l.l.l.l.l.l.l.V.>Xl.l.l.l.b.l.l.l.l.l.l.l.l.l.~.,Xl.l.l.l.l.l.l.",
"l.l.l.l.l.l.l.m.>Xl.l.l.l.l.l.l.l.l.l.l.l.l.l.~.9Xl.l.l.l.l.l.l.l.l.l.l.l.l.l.B.>Xl.l.l.l.l.l.l.l.l.l.l.l.l.b.~.>Xl.l.l.l.l.l.l.",
"l.l.l.l.l.l.l.l.>Xl.l.l.l.l.l.l.l.l.l.l.l.l.l.~.>Xl.l.l.l.l.l.l.l.l.l.l.l.l.l.b.>Xl.l.l.l.l.l.l.l.l.l.l.l.l.l.~.>Xl.l.l.l.l.l.l.",
"N.N.N.n.l.m.N.N.<Xb.N.n.l.l.l.l.B.l.n.V.N.N.l.^.9Xn.V.V.N.N.N.N.N.N.N.n.l.m.m.Q.<Xb.N.n.l.l.l.l.n.l.n.V.V.N.l.^.<Xn.N.~.N.N.N.N.",
"fXiX<X>X0XiXiXiXiXiXiX>X>X>X>XuX9X>X>X>X>X>X>X>X>X>X>X>X>X>X9XdXfXiX,X>X0XiXiXiXiXiXiX>X>X>X>XuX9X>X>X>X>X>X>X>X>X>X>X>X>X>XwXiX",
">Xl.l.l.l.l.l.l.l.l.l.l.l.l.l.~.!.l.l.l.l.l.l.l.l.l.l.l.l.l.l.~.>Xl.l.l.l.l.l.l.l.l.l.l.l.l.l.^.~.l.l.l.l.l.l.l.l.l.l.l.l.l.l.~.",
">Xl.l.l.l.l.l.l.l.l.l.l.l.l.l._.^.l.l.l.l.l.l.l.l.l.l.l.l.l.l.~.>Xl.l.l.l.l.l.l.l.l.l.l.l.l.l._.~.l.l.l.l.l.l.l.l.l.l.l.l.l.l.~.",
">Xl.l.l.l.l.l.l.l.l.l.l.l.l.l.!.~.l.l.l.l.l.l.l.l.l.l.l.l.l.l.~.>Xl.l.l.l.l.l.l.l.l.l.l.l.l.l.~.~.l.l.l.l.l.l.l.l.l.l.l.l.l.l.~.",
">Xl.l.l.l.l.l.l.l.l.l.l.l.l.l.~.~.l.l.l.l.l.l.l.l.l.l.l.l.l.l.!.>Xl.l.l.l.l.l.l.l.l.l.l.l.l.l.!.~.l.l.l.l.l.l.l.l.l.l.l.l.l.l.~.",
"uX$XiXiX6XiXiX*X0XiX=X(.;X*XiXqXdXiX<X#X(.>X&X7X5XuX6X,X<X<X(.*XqX$XiXiX0XrXiX*X6XiX6X(.;X*XiXqXsXiX<X@X(.>X&X7X5XqX=X<X<X<X(.*X",
"^.l.l.l.l.l.l.l.l.l.l.l.l.l.l.}.>Xl.l.l.l.l.l.l.l.l.l.l.l.l.l.^.~.l.l.l.l.l.l.l.l.l.l.l.l.l.l.#X>Xl.l.l.l.l.l.l.b.l.l.l.l.l.l./.",
"~.l.l.l.l.l.l.l.l.l.l.l.l.l.l._.>Xl.l.l.l.l.l.l.l.l.l.l.l.l.l._.~.l.l.l.l.l.l.l.l.l.l.l.l.l.l._.>Xl.l.l.l.l.l.l.l.l.l.l.l.l.l./.",
"~.l.l.l.l.l.l.l.l.l.l.l.l.l.l./.>Xl.l.l.l.l.l.l.l.l.l.l.l.l.l.^.~.l.l.l.l.l.l.l.l.l.l.l.l.l.b._.>Xl.l.l.l.l.l.l.l.l.l.l.l.l.l.~.",
"~.l.l.l.l.l.l.l.l.l.l.l.l.l.l./.>Xl.l.l.l.l.l.l.l.l.l.l.l.l.z.~.~.l.l.l.l.l.l.l.l.l.l.l.l.b.l.@X-Xh.l.l.l.l.l.l.l.l.l.l.l.b.l.!.",
"0X/./././.^.^./._._.}.>X>X)./.'.0X/.>X>X>X>X>X}.#X>X-X/.^._.>X=X=X/./././.^.^././._.).>X>X_./.'.0X/.>X>X>X>X>X).-X>X@X/.^._.>X=X",
"!.!.~.~.~.~.~.[.dX^.~.~.~.~.[.[.-X>X-X~.~.~.~.|.9X~.~.~.~.M.C.~.~.~.~.~.~.!.!.|.rX~.~.~.~.~.[.^.-X>X-X~.~.~.~.|.9X~.~.~.~.~.~.~.",
"l.l.l.l.l.l.l.b.iXl.l.l.l.l.l.l.l.l.l.l.l.l.l.N.>Xl.l.l.y.) t.l.l.l.l.l.l.l.l.N.9Xl.l.l.l.l.l.l.l.l.l.l.l.l.l.N.>Xl.l.l.l.l.l.l.",
"l.l.l.l.l.l.l.l.wXl.l.l.l.l.l.l.l.l.l.l.l.l.l.B.>Xl.e.9.' ) ' 4.%.t.l.l.l.l.l.b.<Xl.l.l.l.l.l.l.l.l.l.l.l.l.l.!.>Xl.l.l.l.l.l.l.",
"K.K.x.z.l.l.l.l.>Xl.l.l.l.l.l.l.l.l.l.l.l.y.r.k.>Xl.w.> Y ) Y ) r.l.l.l.l.l.l.n.>Xl.l.l.l.l.l.l.l.l.l.l.l.l.l.n.>Xl.l.l.l.l.l.l.",
"OXT.G.1.D.A.l.n.9Xl.N.N.l.n.N.l.k.k.l.l.r.) t.n.,Xk.W f 3 I U 4 h i.h.N.m.l.l.m.<Xl.B.N.l.n.V.l.l.l.l.l.l.l.n.n.,Xb.n.l.j.A.K.I.",
"P.P.2XtX2XF.D.:XdXeXiXiXiXiXiXiX1X].t.s.) W i.dX1Xa...Y I I I 2 1 z X.#X>X;X>X&XdX0XiXiXiXiXiXiX9XiX9X-XW.).9XdXiX:XI.3.G.XX4XtX",
"1.1.1.1.P.yXXX1..Xl.l.l.l.l.l.l.' ` ) ` k = 7 x z d Q %.^ U %.0 1 f e g e.4.q 8.>Xe.l.l.l.l.l.l.l.l.l.l.l.l.l.~.L.3.Y.yX2XP.1.1.",
"1.1.1.,.1.3.fX3X1.x.l.l.l.l.l.k.` / + O , ; 6 I = 9.d &.&.@.;.b   > = @ : 5 @ | {.l.[ 0.w.l.l.l.l.l.l.l.l.l.l.S.3.4X2X1.1.1.1.1.",
"1.1.1.,.1.3XaX3X2XD.z.z.l.l.l.l.0.. . 6 7 4 < > a.[ 6 #.;.;.-.b > < . > > a 1 8 r = 3 l   8.l.l.l.l.l.l.l.l.A.3.aXfX3.1.,.1.1.1.",
"1.,.1.1.3XaX3.3.aXF.K.l.l.b.l.l.l.l.{ I 3 - 1 o i.[ q.f 0 +.0 6 I I - . 1 +.^ I 0 g 7 U @ g ] 5.l.l.l.l.l.z.2.4XT.3XaX3.1.1.1.1.",
"1.,.1.T.aX3.1.,.P.3XF.9X,X'.$X*XrX).' 7 / l Y ) E iX5Xr   o , I I 4 =   # ;.%.Q _ 8 I 7 7 7 } o.=X).=X%X7XT.P.3X1.1.3XaX3.1.1.,.",
"1.1.T.3X1.1.,.,.1.aX3.b.l.l.l.!.~.*._ %.;.#.Y ) s [ h ; + ; 7 I U s a e a =.=.@.&.j 7 U ! ~ I I U k.l.l.l.2.yXF.1.1.1.XX3X1.1.>.",
"1.T.3X1.1.1.1.1.1.2XP.J.l.l.l._.~.j.-.;.;.#.Y  .> # [ 6.3 1 I ~ ) ) % $ 1 #.-.-.$., k Q ) ~ 5 U U } l.l.x.3.tX1.1.1.1.1.T.3X1.1.",
"T.3X1.1.1.1.1.1.1.P.oXL.l.l.b.!.~.l.*.;.=.# 4.u.>   5 #.g f Q ) ) W & X 4 = 3 Y I I i ) ) c ; f M.9.l.l.H.Y.T.<.,.1.1.,.1.T.3X1.",
"gX1.1.>.1.1.1.1.1.P.oXL.l.l.l.~.~.i 8.l.t   g 5.3 o ! > < g 4.3 h f % = a   2 o , W { ) s l.l q ~.l.l.l.L.oXP.>.,.1.1.1.1.1.T.3X",
"hXaXyXyXyXyXfXhXhXhXoX.X!._./.'.0X    r @ @ 5 7 3 I 4 < 5 h } k 8 l x 7 7 f k j = } | t.{  ./.W.0X/././..XoXXXP.P.P.P.3.1.1.F.gX",
"gX3.1.1.1.P.P.P.P.XXOX X~.!.N.c E.r 1 3 ; > < @ 4 T T I 6 . > +X] I 5.].a.t.s.h 7 U E = 4.a.~.=X<X~.~.~.U.OXhXhXhXaXyXyXyXyXaXhX",
"3XT.1.1.1.1.1.,.,.P.OXL.l.l.l.i.X # Q Y 2 3 ;   9 =.^ Q U - > ] I 7 6.k.' ~ Q } I I 2 E s 7.l.}.>Xl.l.l.L.OXP.<.1.<.1.<.>.1.1.gX",
"1.3XT.1.,.,.1.1.1.XXP.H.l.l.l.(.} 6 Y ) I I ; : 0 / %.) ) 4 - 5 6 y 0.6.: Q ~ e 7 4 3 3 > w e.).>Xl.l.l.L.OXP.1.1.1.1.1.1.1.3XT.",
"1.1.3XT.1.,.1.1.1.4X3.b.l.l.l.o.] I I ! U I 3 3 E ` d Y 2 a = = p.% w.: o = % / #.~ E - f 4.4.a.>Xl.l.l.J.P.OX1.1.1.1.1.1.3XT.1.",
">.1.1.4XXX1.1.1.F.4XD.B.N.b.l.c   r 8 , , I I , T ) Q 2 >   a 4 l & i O   % 9 ;.;.-._ Y r q.k 3 i.b.V.N.J.D.aX1.1.>.1.3.4XT.1.1.",
",.1.1.3.aX3X1.1.4XP..X>XiXiXiX$XeXU 7 , - I I I T ) E c 2 i.5 | x & # O % X O.;.;.;.$.s j ..].h 3 6XiX<X>XD.3XP.1.1.3.aXT.1.,.1.",
"1.1.1.1.3.aX3XT.3X2.z.z.l.l.l.l.{ R c . . 3 I I 2 ^ 4.n 6.7.h l.0.% i % O   0 ;.;.=.#.E > q 8.l.7.7.l.l.l.K.P.aX3.3.aXXX1.1.<.1.",
"1.1.1.>.1.3.fXaX3.A.l.l.l.l.l.l.5.l.l.@   G k.t.}.n 8.y h.l.9.l.l.& % y   = + @.:.+.( ( ) r.t l.z.l.l.l.l.l.F.2X3XaX3X1.,.1.1.1.",
"1.1.1.1.3.2X4X3..Xl.l.l.l.l.l.l.l.l.l.F t l.l.b.>Xl.l.H n g.l.l.w.& & t @ j Q ) 4 k s r.w r.u.h.l.l.l.l.l.l.H.1.3XfX3.<.<.1.1.1.",
"1.1.P.2XtXP.2.Z.>Xl.l.l.l.l.l.l.l.l.l.l.u.l.l.b.>Xl.l.l.H * l.l.F & n e.e.h E ` s.k.h u.l G l.l.l.l.l.l.l.l.l.J.1.XXyXP.1.1.1.1.",
"tX3XXXF.3.K./.$XsX$X0XiX*XiXiX*X$X$X$X).;X$XqX0XgX0X6X(.'.J J *XJ * $X<X<XX.i.E.uX$XR.iX$XR.iX*X$X$X$X).-X$XeX7XpXF.F.2XtX2XY.P.",
"I.K.A.j.l.l.l.N.>Xl.l.l.l.l.l.l.z.l.l.l.l.l.l.!.<Xl.l.l.b.g.* d.y n l.l.l.l.l.N.>Xl.z.b.l.w.l.l.l.l.l.l.l.z.l.^.>Xl.A.D.1.G.Y.OX",
"l.l.l.l.l.l.l.N.>Xl.l.l.l.l.l.l.l.l.l.l.l.l.l.~.iXl.l.l.l.l.u H & g.l.l.l.l.l.V.>Xl.l.l.l.l.l.l.l.l.l.l.l.l.l.~.<Xl.l.l.z.x.J.K.",
"l.l.l.l.l.l.l.v.>Xl.l.l.l.l.l.l.l.l.l.l.l.l.l.~.>Xl.l.l.l.l.n n p l.l.l.l.l.l.n.>Xl.l.l.l.l.l.l.l.l.l.l.l.l.l.~.>Xl.l.l.l.l.l.z.",
"l.l.l.l.l.l.l.l.>Xl.l.l.l.l.l.l.l.l.l.l.l.l.l.~.>Xl.l.l.l.l.w.& G l.l.l.l.l.l.b.>Xl.l.l.l.l.l.l.l.l.l.l.l.l.l.!.>Xl.z.l.l.l.l.l.",
"}.>X@X/.!./.>X#XrX_./././.^.^._./.^./.;X>X_./.#XrX/.-X>X@X>X>X& J >X|./.~./.>X#XwX}./././.[.~._./.^./.>X>X}./.#XeX/.#X>X@X>X>X}.",
"9X~.~.~.~.~.>X>X>X>X-X~.~.~.~.;X-X~.~.~.~.~.~.~.~.~.~.~.~.~.V.& p.~.~.~.~.~.>X>X>X>X-X~.~.~.!.>X-X~.~.~.~.~.~.~.~.~.~.~.~.~.~.-X",
">Xl.l.l.l.l.l.l.l.l.l.l.l.l.l.^.~.l.l.l.l.l.l.l.l.l.l.l.l.l.F & p.l.l.l.l.l.l.l.l.l.l.l.l.l.l._.!.l.l.l.l.l.l.l.l.l.l.l.l.l.l.~.",
">Xl.l.l.l.l.l.l.l.l.l.l.l.l.l.^.~.l.l.l.l.l.l.l.l.l.l.l.l.l.p & p.l.b.l.l.l.l.l.l.l.l.l.l.l.l.^.~.l.l.l.l.l.l.l.l.l.l.l.l.l.l.~.",
">Xl.l.l.l.l.l.l.l.l.l.l.l.l.l.~.~.l.l.l.l.l.l.l.l.l.l.f.P P u % P P f.l.l.l.l.l.l.l.l.l.l.l.b.~.~.l.l.l.l.l.l.l.l.l.l.l.l.l.l.~.",
">Xl.l.m.l.l.l.l.l.l.l.b.l.z.l.^.|.l.m.l.l.l.l.b.V.c.B d.d.d.u u g.d.d.D l.l.l.l.l.b.l.l.l.l.l.~.|.l.b.l.l.l.l.n.V.B.l.N.l.l.l.^.",
"dX%XiXiXiXiXiXiXrXiX9X).(.#XuXfXiX>X>X>X(.W.'.0XiX`.C C m M M M K D v B iXiXiXiXrXiX9X).W.#XiXfXiX>X>X>X).W.'.0XiXiXrX>X>X>X>XeX",
"~.l.l.l.l.l.l.l.l.l.l.l.l.l.l._.>Xl.l.l.l.l.l.l.l.f.A S S S S S S N C B l.l.l.l.l.l.l.l.l.l.l.).>Xl.l.l.l.l.l.l.l.l.l.l.l.l.l._.",
"~.l.l.l.l.l.l.l.l.l.l.l.l.l.l./.>Xl.l.l.l.l.l.l.l.l.S S S S S S S V C m l.l.l.l.l.l.l.l.l.l.l./.>Xl.l.l.l.l.l.l.l.l.l.l.l.l.l./.",
"!.l.l.l.l.l.l.l.l.l.l.l.l.l.l./.>Xl.l.l.l.l.l.l.l.l.Z S S S S S S Z C K k.l.l.l.l.l.l.l.l.l.l.|.>Xl.l.l.l.l.l.l.l.l.l.l.l.l.l.~.",
"[.l.l.l.l.l.l.l.l.l.l.l.l.l.l./.>Xl.l.l.l.l.l.l.l.l.L S S S S S S V C L l.l.l.l.l.l.l.l.l.l.l./.>Xl.l.l.l.l.l.z.l.l.l.l.l.l.l.^.",
"uX*XiX0X$X+X$X*X0X$X6X8XqXiX$XqXfX7XuX7X9XqX8XiX9X<Xc.S S S S S S N C &X).(.+X*X6X$X0X5XqXiX$XqXsX6XeX8X<XeX8XiXiX<XiX=X$X0XeXsX",
"l.b.l.l.l.l.l.m.wXl.l.l.l.l.l.l.l.V.m.l.l.l.l.V.>Xl.l.A S S S S S m N l.l.l.l.N.>Xl.l.l.l.l.l.l.l.V.N.l.l.l.l.N.>Xl.l.l.l.l.l.l.",
"l.l.l.l.l.l.l.l.iXl.l.l.l.l.l.l.l.l.l.l.l.l.l.N.>Xl.l.L S S S S Z C L l.l.l.l.n.rXl.l.l.l.l.l.l.l.l.l.l.l.l.l.V.>Xl.l.l.l.l.l.l.",
"l.l.l.l.l.l.l.l.9Xl.l.l.l.l.l.l.l.l.l.l.l.l.l.n.>Xl.l.L S S S S m C g.l.l.l.l.n.>Xl.l.l.l.l.l.l.l.l.l.l.l.l.l.V.>Xl.l.l.l.l.l.l.",
"l.l.l.l.l.l.l.l.>Xl.l.l.l.l.l.l.l.l.l.l.l.l.l.l.>Xl.l.L S S S V C B z.l.l.l.l.v.>Xl.l.l.l.l.l.l.l.l.l.l.l.l.l.m.>Xl.l.l.l.l.l.l.",
">X;X^./././._.[.iX~./././././._._././.~.V.^./.).dX-X-X^.A S A B C K }.>X>X/./.).rX~./././././._._././.^.N.^./.(.iX/././.~.!.N._."
};
