/* XPM */
static char *_e0e580650b441baaec71d0068eb5a8cyVghFJDtk17bmtKY[] = {
/* columns rows colors chars-per-pixel */
"64 64 206 2 ",
"   c #01A600",
".  c #0BA705",
"X  c #01AD01",
"o  c #0CAC06",
"O  c #19A80C",
"+  c #1AAD0C",
"@  c #00B200",
"#  c #0DB208",
"$  c #1BB218",
"%  c #21A80F",
"&  c #33AA18",
"*  c #28B018",
"=  c #2AB828",
"-  c #3DB836",
";  c #53A825",
":  c #55B033",
">  c #66AA2E",
",  c #73A833",
"<  c #47BE42",
"1  c #6CBC51",
"2  c #74C174",
"3  c #87A63C",
"4  c #81A93A",
"5  c #FCBE00",
"6  c #F7BF0A",
"7  c #EDBB1D",
"8  c #F2BE19",
"9  c #DDB13D",
"0  c #EABC25",
"q  c #E8BC2C",
"w  c #E4B632",
"e  c #E1B738",
"r  c #FEC500",
"t  c #FECD00",
"y  c #F7C30D",
"u  c #FAC40B",
"i  c #FACA0E",
"p  c #FFD000",
"a  c #FED10D",
"s  c #F3C515",
"d  c #F7C816",
"f  c #F1C21C",
"g  c #FED214",
"h  c #FED31B",
"j  c #EDC023",
"k  c #F7CA28",
"l  c #FED524",
"z  c #FDD52A",
"x  c #EBC339",
"c  c #F2CB32",
"v  c #FFD732",
"b  c #FFD835",
"n  c #FFDA3C",
"m  c #99A844",
"M  c #92AE51",
"N  c #B5A652",
"B  c #A7B866",
"V  c #D9AF46",
"C  c #D5AB4B",
"Z  c #DAB044",
"A  c #C1A657",
"S  c #CEA65D",
"D  c #D3AA53",
"F  c #D2AC5B",
"G  c #DAB757",
"H  c #DCBB56",
"J  c #D7B259",
"K  c #D9B758",
"L  c #E5BD43",
"P  c #C3AB60",
"I  c #D1AB66",
"U  c #D1AD6D",
"Y  c #D6B365",
"T  c #D9BF6E",
"R  c #D0AF74",
"E  c #C1B071",
"W  c #CEB079",
"Q  c #D2B173",
"!  c #DEBE74",
"~  c #D3B57C",
"^  c #DABD7A",
"/  c #86CC7A",
"(  c #F3CC48",
")  c #F7DE47",
"_  c #F8DF47",
"`  c #F7DF4B",
"'  c #F8DF4C",
"]  c #E3C354",
"[  c #E7C656",
"{  c #E6C954",
"}  c #E8CD53",
"|  c #EED253",
" . c #EED45B",
".. c #F4D657",
"X. c #F2DA54",
"o. c #F2DC5A",
"O. c #F8E047",
"+. c #F9E24C",
"@. c #F6E056",
"#. c #F9E452",
"$. c #FBE857",
"%. c #F5E05C",
"&. c #F9E55B",
"*. c #FCE85B",
"=. c #DEC57B",
"-. c #E1C164",
";. c #E5CB66",
":. c #E9D46A",
">. c #F4D969",
",. c #E6C973",
"<. c #EDDF7C",
"1. c #F5E164",
"2. c #F8E562",
"3. c #FAE965",
"4. c #F5E36B",
"5. c #F8E76B",
"6. c #FAE96B",
"7. c #F5E473",
"8. c #F9E771",
"9. c #F9EA74",
"0. c #F3E47C",
"q. c #F9EB7C",
"w. c #BAAD90",
"e. c #D6BA85",
"r. c #DABC85",
"t. c #D9BD8B",
"y. c #CDBA94",
"u. c #C6B79A",
"i. c #C7BA9F",
"p. c #CABA99",
"a. c #D4BE91",
"s. c #C4BBA6",
"d. c #96D080",
"f. c #A0D38D",
"g. c #ADD3A3",
"h. c #DBC283",
"j. c #DDC38F",
"k. c #CACD98",
"l. c #D2C09C",
"z. c #DAC699",
"x. c #ECD78B",
"c. c #F4DE85",
"v. c #E1CB99",
"b. c #E5D495",
"n. c #E8D092",
"m. c #F4E685",
"M. c #F8EC83",
"N. c #F7EB8C",
"B. c #F8EE8D",
"V. c #FAF089",
"C. c #F6EC93",
"Z. c #F8EF92",
"A. c #F8EF9A",
"S. c #F9F093",
"D. c #F9F19B",
"F. c #CEC2A8",
"G. c #D9C6A1",
"H. c #DBC9A6",
"J. c #D4C6AB",
"K. c #D7C8A9",
"L. c #D7CAA9",
"P. c #CDC4B0",
"I. c #CDC9BD",
"U. c #D6CAB3",
"Y. c #DDCEB2",
"T. c #D6CEBA",
"R. c #D7D3B6",
"E. c #DED3BC",
"W. c #E2CDA5",
"Q. c #EAD7A2",
"!. c #E6D2AD",
"~. c #E2D2B3",
"^. c #E4D6BC",
"/. c #EAD9B9",
"(. c #E8DBBB",
"). c #F4E5AB",
"_. c #F7F0A5",
"`. c #F9F2A3",
"'. c #F9F4AA",
"]. c #EDE4B6",
"[. c #F1ECB6",
"{. c #F9F6B3",
"}. c #F9F7BC",
"|. c #CCCECD",
" X c #DFD7C3",
".X c #D9D4C4",
"XX c #D7D5CA",
"oX c #D8D8D2",
"OX c #E6DBC3",
"+X c #EDDEC2",
"@X c #E4DCCC",
"#X c #E2DFD4",
"$X c #EEE0C6",
"%X c #E9E1CB",
"&X c #EEEECF",
"*X c #F0E3CD",
"=X c #F8F9C6",
"-X c #F9FBCE",
";X c #EBE4D5",
":X c #EDE9DE",
">X c #F3E9D6",
",X c #F8F8D4",
"<X c #EFEEE8",
"1X c #F6EEE0",
"2X c #F9F4EA",
"3X c #FCFAF5",
/* pixels */
"r.r.r.Q S ~ I a.i r r t p p t p b h g z g z p p p p ] e.r.r.r.r.r.r.r.Q S Q N @ X . X X X X X @ X   : ~ r.r.r.!.+Xr.r.r.r.r.r.r.",
"S S S S S S S Y r r r t t p p p h z h h l g p t t p t D S S S S S S S S S S , @ X @   X @ @ @     ; S S S S S r./.S S S S S S S ",
"S S S S S S I L r r t t t p t t g h l l g p p p p t p f S S S S S S S S S S I X   @ @ @ @ X   . 3 S S S S S S r.x.| @.@.| ] S S ",
"S S S S S S S 6 r r r t t t p p p h g g g p p p t t p t Z S S S S S S S S S S X X X X X   O m I S S S S S S } %.9.M.{.9.5.4.%.{ ",
"o.W Q U S R W 8 r r t r r r t t t t p p t t t t t t t p e E W W W W R U S Q Q O   X X . m F S I R S U Q ~ o.m.B.+.&.Z.+.+.+.2.0.",
"`.8./.!.OX>X>X..5 r r r r t t t p t t t p t t p t t p t z !.$X1X2X>X/.Y.OX>X>X/     $ k.!.!.~.;X+X!.!.!.c.'.8.#.+.+.q.+.+.) O._.",
"5.7.H S S S S S 5 5 r t r t r t t t t t t p t p p p p t s S S e.!.S S S S S I S m 3 S S S S S e.r.S S S S h._.#.#.+.5.#.#.+.q.+.",
"#.{. .S S S S S 5 5 5 r t r r r t t t t p p p p t p p p s S S h.!.S S S S S S S S S S S S S S y.r.S S S S S Q {.&.+.2.#.#.%.&.#.",
"+.q.1.F S S S S 6 5 5 5 r t r r t r t t t p t t t p t t f S S r.!.S S S S S S S S S S S S S S r.r.S S S S S S Q [.%.3.*.2.1.+.+.",
"+.2.4.K S S S S w 5 5 5 5 r r t r r t t t t p p t t t p s S S r.!.S S S S S S S S S S S S S S e.r.S S S S S S S I [.N.V.V.*.#.+.",
"A.{.M.).OX>X>XT.OX5 5 5 5 r r r t r r t t t t t t t p t k /.u.T.%XP.>X>X X>X>Xb.<.M.<.:.b.T.<X%X<X>X/.H.u.!.U..X|.&X&X-X6.9.q.S.",
"+.+.4.J S S S S S 6 5 5 5 r 5 r r t r r t r t t t t p p y S S t.r.S S S S | 6.M.D.}.=XV.9.%.H z.!.S S S S S S S S S S Q.2.*.#.+.",
"+.5.>.S S S S S S S 5 5 5 5 5 5 r r r t r r r t t t t t t S S a.r.S S J %.V.5._ #.#.A.#.#.C.q.>.!.S S S S S S S S S S S b.2.+.+.",
"+.N.` S S S S S S S C 5 5 5 5 5 5 r r r t t r r t t t r r S S r.r.S F &.S.M.#._ +.6.9.+.+.+.M.S.4.S S S S S S S S S S S S h.2.+.",
"@.1.K S S S S S S S S C 5 5 5 5 5 5 5 r r r r t t r r t r I S r.r.S o.6.+.6.2.+.#.9.#.+.+.O.M.D.q.H S S S S S S S S S S S S =.5.",
"N.:.y.y.y.t.t.y.y.a.l.!.!.T 6 5 5 5 5 5 5 r 5 r r t u f ^ a.!.^.E.=.9.+.#.+.9.#.+.q.#.+.#.N.&.#.M.1.!.!.!.!.!.l.H.!.G.y.j.l.!.^.",
"=.r.r.r.r.r.r.j.1Xr.r.r.r.r.j.! k 5 5 5 5 5 5 8 Q.r.r.r.r.r.r.r.r.%.0.+.+.+.#.q.#.q.&.&.B.O.+.+.+.6.v.j.r.r.r.z.(.r.r.r.r.r.r.r.",
"S S S S S S S I >XS S S S S S S S S S C w S I W !.S F S S S S S S 3.B.+.+.+.$.*.q.M.6.9.#.@.+.O.$.V.H S S S S W !.S S S S S S S ",
"S S S N 4 > > 3 >XS S S S S S S S S S S S S S R !.S S S S S S S S q.B.6.9.q.q.q.}.,XB.#.+.+.O.+.+.V.{ S S S S e.!.S S S S S S S ",
"S S > # @ @ X @ # ; N S S S S S S S S S S S S S !.S S S S S S S F 9.0.+.#.+.#.#.D.=X`.6.3.9.q.5.S.D.] S S S S U !.S S S S S S S ",
"E * X @ @ @ @ @ X @ $ M S Q W S S S S S S I I U /.I R S S S S I W 2.A.+.#.+.#.M.&.9.$.5.$.+.+.+.5.q.J S S S U U (.I I S S S S I ",
"- @ X @ @ @ @   X X @ o f.>X>X>X+X>X+XH.w.p.+X1X>X~.!.!.H.w.w.H.$X8.'.O.+.5.M.#.#.V.#.&.9.+.) +.D.6.$XH.w.l.$X>X>X!.!.!.F.w.w.G.",
"@ X X @ X X @ X X   @   . S S S S S S S S S S r.+XS S S S S S S S J 9.B.A.5.+.+.#.B.+.+.+.9.+.2.S.{ S S S S S r.!.S S S S S S 4 ",
"@ @ @ X X X X   @ @ @     S S S S S S S S J S r.*XS S S S S S S S S | S.q.+.+.+.+.B.+.+.+.2.`.{.%.S S S S S S r./.S S S S S S + ",
"X X X X X X @ X @ X   o 3 S S S S S S S ^ 4.[ e.!.S S S S S S S S S S o.B.8.O.+.O.B.+.+.+.8.D.2.S S S S S S S r.!.S S S S S > X ",
"@ @ X @ @ @ @ X X % 3 S S S S S S S S S [.A.7.:.!.S S S S S S S S S S S } 6.S.5.q.`.6.6.M.q.| S S S S S S S S r.!.S S S S N # @ ",
"X @ X @ @ X     / T.>X$X~.P.P.T.*Xp.^.%X6.#.M.1.,X>XXXI.+XI.|.>X>X>X>X>XP.].<.2.2.9.6.2.1.G.P.T.$Xp.E.P.XX>X X@X2X>XXXI.$X- @ @ ",
"@ @ X X     . 3 S I S S S S S t.r.S U '.+.+.O.C. .S S S S S S r.!.S S S P S S S S I S S S S F j.t.S S S S S S S S S S S > @ @ X ",
"          & N S S S S S S S S a.r.S ).#.#.+.#.&.%.S S S S S S r.!.S S S S S S S S S S S S S S a.r.S S S S S S S S S S , $ O     ",
"1 & ; , S S S S S S S S S S S e.r.v.M.#.+.+.5.B.7.H S S S S S r.!.S S S S S S S S S S S S S S t.r.S S S S S S S S S S S S S S B ",
"!.S S S S S S S S S S S S S S r.j.-XM.9.q.6.+.+.5.{ S S S S S r.!.S S S S S S S S S S S S S S r.r.S S S S S S S S S S S S S S r.",
"+Xt.y.y.y.y.y.a.y.y.y.r.~ a.y.F.&X=X6.*.+.#.+.#.7.>.a.p.y.y.a.J.+Xt.y.y.y.y.y.y.y.y.y.r.e.a.y.U.OXy.y.y.r.e.r.z.~.G.a.y.y.y.t.Y.",
"W.r.!.!.r.r.W.W.j.r.r.r.r.r.r.(.9.5.6.q.+.+.+.O.6.,.r.Q I ^ Q K.W.r.!.~.r.r.W.W.j.r.r.r.r.r.h.Y.OXr.r.r.r.r.r.r.r.r.r.I I ~ ~ K.",
"r.S S S S S S S S S S S S S I A.&.9.&.+.q.3.+.` o.F S S S S S e.r.S S S S Z Z D S S S S S S S l.!.S S S S S S S S S S S S S I a.",
"r.S S S S S S S S S S S S S n.#.#.q.+.#.+.#.C.D.o.S S S S S A l.! w f t p p p p t f e S S S S p.!.S S S S S S S S S S S S S S t.",
",.F S S S S S S S S S S S ^ 2.+.) 5.&.#.+.` B.4.K S S S S S D c t p p t p t t p t p p t d s s c x.S S S S S S S S S S S H | } >.",
"V.6.X.J S S S S I S U W W N.' #.#.+.q.O.` A.7.;.W W W I N ( t t p p p a h t h p t t t p t p t t a F W W W W W W W Q  .6.M.D.=X{.",
"#.&.D.6.c.W.Y.>X3X>X%X!.C.9.8.2.+.O.}.M.{.5.<.;X>X!.!.W.c t t t t p z l l l l g p t p p p t p p p >.>X/.!.!.!.;X).3.B.5._ #.3.M.",
"+.X.+.`.M.[ S Q %XS F S S ] X.o.4.1.>.%. .K S W !.S D i t t t t p p g l v h l l p p p p p t t p t 0 S S S S S T 6.`.5.+._ _ q.&.",
"+._ +.`.'.5.F S >XS S S S S F F G G J S S S S W !.S f t t t t p t t a l h h h v a t p t p t p t t V S S S S F 2.2.+.M.#.+.$.M.+.",
"+.#.S.#.+.D.o.S /.S S S S S S S S S S S S S S I !.Z t t t p p t t p p h l n b l t t p p t t t r i S S S S S } 9.+.+.+.q.+.+.q.+.",
"&.M.+.+.+.#.6.S !.S S S S S S S S S S S S S S I ~.j p p p t t p p t a g l h g a p p p p t t t r q S S S S S 3.6._ +.#.#.7.$.q.*.",
"6.+.#.+.+.$.9.F.<XP.%X>XT.>X>XT.F.F.P.u.!.P.%X X3Xd t t p p p p p t t p t g t t p t p t r r r t -.P.P.i.!.F.9.9.+.+.#.#.*.3.9.q.",
"+.+.+._ +.+.q.-.!.S S S S S S S I S I S S S S t.Q.p p t t p t t p p p p p t t t p p t r t r t r w S S S S G 9.M.6.q.q.q.6.=X,Xq.",
"6.6.9.8.9.D.M.-.!.S S S S S S S S S S S S S S e.m.p p t t p p p t t t t t t t p r r t r t r t r 9 S S S S J 9.3.+.+.+.*.#.{.=XN.",
"%.*.+.#.+.B.9.U !.S S S S S S S S S S S S S S r.c p t t t t t t p p p t t p t t r t r r t r r 5 S S S S S S 9.q.+.#.+.#.q.&.6.3.",
"*.2.+.+.+.{.o.S !.S S F S S S S S S S S S S S -.t p t t p t p t p t t t p r r r r t r t r r 5 5 S S S S S S %.'.+.+.9.9.$.#.6.&.",
"+.2.*.+.q.q.x.P.%Xa.y.p.p.e.r.a.y.t.y.W.!.l.y.d p t t t t t p t t t t t t t t r t r t r r 5 5 T u.h.y.!.!.l.:.M.8.`.2.+.+.%.5.+.",
"+.+.8.S.D.o.~.~.!.!.W.r.r.r.r.W.W.r.r.r.r.r.[ t r t t t t t t t t r t r r r r r r t r 5 r 5 u ~.W.r.r.r.r.r.r.%.}.2.+.+.$.6.8.+.",
"+.O.V.D.o.F F S S S S S S S S t.r.S S S S S w r t r t t r t t r t r r r t r r r r 5 5 5 5 5 S a.r.S S S S S S F %.B.%.+.+.6.5.O.",
"5.N.3.| S S S S S S S S S S S a.r.S S S S S D t r r r r r r r t r r r t t r r r 5 5 5 5 5 0 S a.r.S S S S S S S F o.9.S.*.M.B.8.",
"3.X.F S S S S S S S S S S S S r.r.S S S S S S D y r t r t t r r t r r r r 5 5 5 5 5 5 5 6 S S r.r.S S S S S S S S S H | 3.9.q.6.",
"!.S S Q S S S S S S S S S S S t.z.F U S S S S I ~ Y r r r r r r r r r 5 5 5 5 5 5 5 5 r S S S t.z.S I S S S S U ~ Q S R S S J j.",
":XI.>X>X>X>X>X>X%X>X+XF.a.H.>X2X>X!.!.!.w.w.s.%X>X>X%X( 5 5 5 5 5 5 5 5 5 5 5 5 r 5 u s.w.H.>X2X>X!.!.!.u.w.s.%X>X>X%X!.!.!.!.%X",
"h.S S S S S S S S S S S S S S a.!.I S S S S S S S S S S C 5 5 5 5 5 5 5 5 5 5 5 5 6 S S S S S l.!.S S S S S S S S S S S S S S y.",
"r.F S S S S S S S S S S S S S p.Y.S S S S S S S S S S S S S C 0 d 5 5 5 6 6 7 9 I S S S S S S y.!.S S S S S S S S S S S S S S y.",
"r.S S S S S S S S S S S S S S p.!.F S S S S S S S S S S S S S r.r.S S S S S S S S S S S S S S G.!.S S S S S S S S S S S S S S r.",
"z.S S S S S S S S S S F S S S p.~.F S S S S S S S S S S S S S r.r.S S S S S S S S S S S S S S y.!.S S N m m S S S S S S S S S t.",
":XT.>X XP.F.P.T.OXJ.!..X;X>XP.%X2X.X;XXX$X;XoX>X+X/./.K.u.Y.~.^.^.U.+XK.i.u.s.E.@XP.R.2 < $ @ = @ X @ @ X g.oX>X>X(.>XY.P.@X%X<X",
"S S S S S S S R ).r r p i j e 0 j x Z D S S S W !.S S S S S S S S S S S S S S W !., o @ @ X @ X @ @ @ X % S S ~ !.S I S S S S S ",
"S S S S S S S S 4.t t t p t p p t p p p f e S W !.S S S S S S S S S S S S S S U d.X @ X @ @ X X X X @   > S S W !.S S S S S S S ",
"S S S S S S S S k p p p p t t p t t p t t t s Y !.S S S S S S S S S S S S S S M X @ @ X X @ X @ @ X @   S S S W !.S S S S S S S ",
"S S S S S S S S k t p t p p t t p p g p p t t p >.S S S I S S S S S I S S S S & @ X @ @ X @   X @ X   O S S S R !.S S S S S S S ",
"!.W.t.y.y.a.a.z...t t p p p t p p h n v h t t t t ,.W.y.a.r.a.a.U.Y.a.!.!.p.a.@ X X X   o @ @ @ @ @   B Q t.y.u.>Xy.y.p.r.e.Q a."
};
