/* XPM */
static char *cafe09bd684c4a6bf3c225a68fd5880bYErRo6BzoYEZth3S[] = {
/* columns rows colors chars-per-pixel */
"64 64 227 2 ",
"   c #EFBE1F",
".  c #D9BD24",
"X  c #D7BA2C",
"o  c #D9BD2D",
"O  c #D5B635",
"+  c #D6B931",
"@  c #DBBC33",
"#  c #D4B33D",
"$  c #DBB53C",
"%  c #D3BD3C",
"&  c #DABB3C",
"*  c #E4BC35",
"=  c #E0BA3E",
"-  c #DDC70F",
";  c #DEC916",
":  c #DBC719",
">  c #DECA1D",
",  c #DBD214",
"<  c #DBD915",
"1  c #D9D41B",
"2  c #F6C616",
"3  c #F9C611",
"4  c #F7CC15",
"5  c #F8CA13",
"6  c #F1C51D",
"7  c #F4CD1A",
"8  c #F6D115",
"9  c #F4D51C",
"0  c #F4D81F",
"q  c #DCC422",
"w  c #DFCB24",
"e  c #DBC22C",
"r  c #D6CB29",
"t  c #DFCC2B",
"y  c #DAD325",
"u  c #DBC334",
"i  c #D6CA33",
"p  c #DECB33",
"a  c #DCCB3C",
"s  c #DDD436",
"d  c #E4C626",
"f  c #EDC625",
"g  c #E0CB25",
"h  c #EAC22B",
"j  c #E0CE2D",
"k  c #EBCE2E",
"l  c #F0CE2C",
"z  c #EAD126",
"x  c #EDD52B",
"c  c #EFDE2D",
"v  c #F2D721",
"b  c #F1D924",
"n  c #F5D12C",
"m  c #F0DC2A",
"M  c #E0CF34",
"N  c #E9CC32",
"B  c #E7C53B",
"V  c #E8C63B",
"C  c #E3CC3B",
"Z  c #E2D036",
"A  c #EAD534",
"S  c #EEDF30",
"D  c #E2D13D",
"F  c #EBD33A",
"G  c #E9DC3B",
"H  c #F6D63D",
"J  c #EDE134",
"K  c #EBE43B",
"L  c #D3AF46",
"P  c #D3AE4C",
"I  c #CFB24F",
"U  c #D4B145",
"Y  c #DCB544",
"T  c #D4BB44",
"R  c #DCBC44",
"E  c #D5B24D",
"W  c #D9B54C",
"Q  c #D1B848",
"!  c #DABA4C",
"~  c #CFAB55",
"^  c #CEA65D",
"/  c #CEA85A",
"(  c #D2AC55",
")  c #D1AA58",
"_  c #D6B251",
"`  c #DABC52",
"'  c #D7B65D",
"]  c #E1BE41",
"[  c #D1AB66",
"{  c #D1AD6D",
"}  c #D6B364",
"|  c #DBBD63",
" . c #D5B768",
".. c #CDB877",
"X. c #CEB079",
"o. c #D1B173",
"O. c #D9BE72",
"+. c #D4B57D",
"@. c #D1BD7A",
"#. c #DCBD7C",
"$. c #DEC246",
"%. c #DCC846",
"&. c #DDC249",
"*. c #D7C556",
"=. c #DCC15D",
"-. c #DDDA53",
";. c #E1C442",
":. c #E2CB43",
">. c #E3CB48",
",. c #E3D244",
"<. c #E6DC42",
"1. c #E3D44C",
"2. c #EAD748",
"3. c #F4D646",
"4. c #E3C856",
"5. c #E1CD5C",
"6. c #E4D552",
"7. c #E8D853",
"8. c #E5D659",
"9. c #E5D85C",
"0. c #E8DA5E",
"q. c #EBE543",
"w. c #E7E34C",
"e. c #EBE94A",
"r. c #E9E154",
"t. c #EDE954",
"y. c #EFE95C",
"u. c #D9C666",
"i. c #DDC175",
"p. c #D6C479",
"a. c #E2C969",
"s. c #E5D464",
"d. c #E6D962",
"f. c #E9DA64",
"g. c #E7D469",
"h. c #E6D969",
"j. c #E9DC6A",
"k. c #F1D763",
"l. c #E0C274",
"z. c #E2CB7B",
"x. c #E7DB71",
"c. c #E9DC72",
"v. c #EAD379",
"b. c #E6DD79",
"n. c #E8DE79",
"m. c #F0EB69",
"M. c #E8E374",
"N. c #F1ED74",
"B. c #F3ED7D",
"V. c #BAAD90",
"C. c #CBBB8C",
"Z. c #D4BD83",
"A. c #DABC84",
"S. c #DABC85",
"D. c #D9BD8B",
"F. c #CDBA94",
"G. c #C6B799",
"H. c #C9BA9B",
"J. c #D4BE92",
"K. c #C1B9A7",
"L. c #D5C387",
"P. c #DDC28F",
"I. c #D3C88F",
"U. c #DCCD8D",
"Y. c #D9C596",
"T. c #D2C09C",
"R. c #DCD39D",
"E. c #E1CF87",
"W. c #E3CE8C",
"Q. c #E5D085",
"!. c #E9DF80",
"~. c #E8D78C",
"^. c #E5CC92",
"/. c #E2CB9B",
"(. c #E9D595",
"). c #E6D29C",
"_. c #E8D799",
"`. c #ECE180",
"'. c #E9E188",
"]. c #F4EF87",
"[. c #E9E295",
"{. c #F5E495",
"}. c #F4F29E",
"|. c #CDC3AA",
" X c #D8C8A6",
".X c #DBC9A6",
"XX c #CDC4B0",
"oX c #CFCBBB",
"OX c #DBCDB2",
"+X c #D6CEBA",
"@X c #DFD2B4",
"#X c #E2CDA4",
"$X c #E0CEAB",
"%X c #E6D1A4",
"&X c #E9D4A2",
"*X c #E6D2AD",
"=X c #E9D7AC",
"-X c #ECDBAD",
";X c #E4D5B6",
":X c #EAD9B6",
">X c #EBDABC",
",X c #EEE1A4",
"<X c #F6F3A8",
"1X c #EFE3B1",
"2X c #F4E7BC",
"3X c #F5E8BE",
"4X c #F8F4B4",
"5X c #F9F6BE",
"6X c #D7D0C2",
"7X c #DFD7C3",
"8X c #D2D3D0",
"9X c #EDDDC2",
"0X c #E5DDCB",
"qX c #E2DFD3",
"wX c #ECE2C2",
"eX c #E9E0CC",
"rX c #F2E7C6",
"tX c #F0E3CD",
"yX c #F9F5CD",
"uX c #EBE4D5",
"iX c #EDE9DE",
"pX c #F3E9D6",
"aX c #F5EDDB",
"sX c #EFEEE8",
"dX c #F6EEE0",
"fX c #F9F4EA",
"gX c #FCFAF5",
/* pixels */
"S.S.S.} L ` W L.>XS.#XP.S.S.P.#XS.P.S.+.S.S.S.#X9XS.S.S.A.#.' =.=.i.A.o.^ { [ J.9XS.#X^.A.A.P.#XS.P.S.+.A.A.A.%X(.=.=.i.Z.D.A.A.",
"^ / e ,.9.1.9.,., ~ ^ ^ ^ ^ ^ ^ ( _ ) _ W ) ^ S.tX^ ^ ) X D 0.,.9.D , E ^ ^ ^ X.*X^ ( _ ) ^ E ) ^ ^ ^ ) ^ ^ + C h.,.6.6.; u ^ / ",
"^ e d.,.j - M 6.1., ~ ^ ^ ^ W A m J J J K <.` #.9X^ ^ . 9.s ,.- j 7.9., ( ^ ^ o.(.N m m S J K K ` ) ^ ^ / + 9.Z 1.- w 6.d.: Q ^ ",
"# 8.j - M - M Z f.s y ^ ^ P v b m m m G J t.N.7.*X^ P 6.Z - p - Z D M.1.1 ^ ^ ` b b m m c J J t.N.,.) ^ ~ D ,.- w ; D ; d.s.< ^ ",
"o x.,.w ; t ; w 6.c., { ) v 9 v b m c c J q.4XK _.{ % !.,.j - Z > w 6.x., o.o.N 0 v b m m J S K 4XK ' +.$.h.,.j - ,.j > ,.M.> ..",
"6.6.- - ,.`.<.; j d.; &Xn 4 9 9 b b m c J J K K K _.p 1.- - D '.,.> j 1.; rXH 8 8 0 v b m m S J K K q.~.%.d.- - j !.6.> > 7.M aX",
"a d.t Z t j.p p ; 6.; ^ * 5 3 4 8 b b m m J J K ,.) . h.g M Z h.j j ; 1.; ^ R 5 5 5 8 b b m m J J K ,.( O c.Z Z j 8.M C : M y A.",
"4.n.t - p ; > - ,.d.w ^ ^ f 5 4 4 9 b m m m S J _ ^ O h.M - j - w - C d.g ^ ^ h 5 7 5 9 b m m S J J _ ^ U 9.,.- w ; M - g !.; A.",
").j >.- M - C - 9.g E ^ ^ P 6 3 8 9 v b b m m W ^ ^ ) w 6.- D - D ; 6.g E ^ ^ (   5 8 9 9 b m m c ! ^ ^ ^ w 9.; M - Z - ,.M $ A.",
"*X+ Z b.M - 8.c.g @ ^ ^ ^ ^ [ 4.k 9 9 0 b R ) ^ ^ ^ / O j n.M ; 1.x.g o ^ ^ ^ ^ / Y z 8 9 9 b >.u.^ ^ ^ ^ U t j.8.- a c.Z > / A.",
"iXXX8.- j Z g - %.pX7XG.$X+XpXqXdXrX-XU.G.*XOX6X8X0X0X:X5.- j j j - :.pX7XpXpX+X+XpX0XC. XR.pXuXsXpX:X XG.*Xp.- g j M - e =XG.+X",
"S.^ ^ P . q . E ^ ^ ^ ^ ^ ^ ^ J.*X^ ( U ) / ^ ^ ^ ^ ^ ^ ^ U . e u U ^ ^ ^ ^ ^ ^ ^ ^ ^ L L ( ^  X*X^ ^ ^ ^ ^ ^ E X q . # ^ ^ ^ F.",
"S.^ ^ ^ ^ ( ) _ / ^ ^ ^ ^ ^ ^ F.z.g D D ,.> u ^ ^ ^ ^ ^ ^ ^ ) L.l.( ^ ^ ^ ^ ^ ^ ^ U g C ,.D , *.*X^ ^ ^ ^ ^ ^ / ^ ^ / ^ ^ ^ ^ F.",
"S.^ ^ E A S S J K >.) ^ ^ ^ ^  .D h.1.- ,.h.t r ^ ^ ^ ^ ( V m J J J ,._ ^ ^ ^ ^ U D 8.1.- D h.w 1.^ ^ ^ ^ ( V c c J K K &._ ^ D.",
"S.) = b b m J J J K N.>.^ ^ / M ,.- a - s j.j.w ~ ^ ^ Y v b m S J J K B.%.( ^ / M ,.; M - C f.f.y I ^ ^ W 9 b c c J J J N.q._ A.",
"7Xi.9 0 b m m m G K <Xt.(.H.*.x.1.; > > > ; 6.8.s *X^.9 v b m m c J J ].].a.D.*.d.1.; ; g > ; 6.6.i *X(.9 9 b b c c J J B.].7.@X",
"i.7 8 9 v b c c J J K K 2.i.&.6.- ; C n.,.w 7.1., i.n 8 v v b b m m J J K q.l.*.6.- : D c.,.j ,.1., #Xl 8 9 0 b b m S S J K q.i.",
"( 7 5 4 9 v b b m J J K <.) O d.; p s j.D t - ,.> ) f 5 4 4 v b m J m G J G ) R 9.- M Z d.C t - 1., ^ h 5 4 8 0 b m m S J J ! ^ ",
"^ Y 5 3 4 9 v b m J J J _ ^ U h.,.- t > ; - 9.,.5.^ ( 3 5 4 9 b m m m J J ` ^ Q d.,.- g ; w - 9.1.& ^ ( 3 3 5 9 v b b m S G ) ^ ",
"^ ^ * 3 4 9 v b b m m R ^ ^ ^ g 6.- D - Z - 9.w &X^ ^ _ 3 5 8 v b b m m :.) ^ { t 9.- M - M - 8.> / ^ ^ ( 3 5 8 9 v b m A ) ^ ^ ",
"X.Z.^ ' N 8 9 v b V  .X.^ o.X.P t h.Z - 8.d.g } ;X[ { ^ P V 8 8 9 b N | { ^ ^ o.(.t n.D - 8.d.g P ^ ^ ^ ^ _ ] 9 9 9 b a ) ^ ^ [ ",
"9XpXtX*X*X&X(._.dX0XpXpXpXpXpXpX-X8.t D w R -XaXaX*X*X*X XV.V.U.-XrXpX*X*X*X*X;XaX;X8.t M j >.rX9XpX9X#XG.H.9XaXpX*X*X*XT.V.V. X",
"^ ^ ^ # q : ; i ).^ ^ ^ ^ ^ ^ ^ ^ ^ ^ ^ ^ ^ ^ S.9X^ ^ ^ ^ P q : ; r P ^ ^ ^ ^ X.*X/ / ^ ^ ^ ^ ^ ^ ^ ^ ^ ^ ^ ^ | C : ; q % / ^ ^ ",
"^ / e 6.h.M 6.9.; i ^ ^ ^ ^ ^ ) ) _ _ W ( ( ^ S.tX^ ^ ) . 1.n.C 8.9.> r ^ ^ ^ +.*X) ) _ W W _ W ^ ^ ^ ^ ^ ^ X >.b.p ,.g.t > ^ ^ ",
"^ @ s.g ,.- j 1.c.; T ^ ^ ^ W x m c J J J q.,.i.*X^ ^ X 9.p D - > 1.x.g i ^ ^ [ (.k m S S J K K G / ^ ^ ^ + 9.j ,.- - ,.c.j w / ",
"L 1.D - g - D > 2.d.< ^ ^ ( v v b m m J J q.}.w.&X^ P D 1.- > ; s > f.j., ^ ^ ' 9 b b S m J J K }.q.~ / / M 6.- ; > M - 7.c.; / ",
"x.x.D p ; D > j 1.n.; wX;XF 9 9 b b m J J J B.t.].iXu.j.M C > ,.w j ,.n.y wXoX3.9 9 b b m S J J B.t.M.XXE.9.M Z > ,.Z w D n.w wX",
"a 1.- ; j [.6.- > D t / 4 8 8 9 0 b b c J J J K q.! O j.- - > [.6.; ; ,.j / f 8 8 9 v b m m S J J K K ` O 8.- - q b.f.; - j j p.",
"5.h.M M > 8.> C j 1.; / P 5 3 4 4 b b m c c J J ,.) # d.p D > 6.> M p 1.g ^ E 2 3 5 4 b b m m S J K D ) L d.p D g 1.M M Z ,.Z p.",
"Q.8.M - g - M - t j.g ^ ^ = 3 3 4 9 b b m c J J _ ^ P 6.D - w ; M - ; x.> ) ^ Y 3 5 4 9 b b m m S J _ / ) :.9.- ; > C ; - n.> S.",
"*X& h.: ,.- M : 9.j ) / ^ / @ 3 9 8 v b b c m ( ^ ^ ^ O d.: ,.- M : 1.N _ ^ ^ ) = 5 8 8 9 v b m c _ ^ ^ ^ # 9.d M - > ; D M & S.",
"9XD.u.s.9.- 1.c.B O.F.A.+.P.F.I.k.v 9 9 F 4.#.Y.$X XJ.F.u.s.d.- 1.x.>.O.F.F.F.F.F.#.4.9 9 v ,.h.:XF.F.F.S.S.| s.h.; j x.j $.D.OX",
"#XS.*X*XS.l.^./.P.S.S.D.S.S.S.OX-XB y t ; a S.S.A.A.A.{ [ +.{ W.^.#.*X*XA.A.#X#XP.#.e g Z > a $X9XS.S.S.S.S.S.S.S.l.l.[ [ +.+. X",
"S.^ ^ ( ] C A >.&._ ) ^ ^ ^ ^ u.p M.j > b.1., E ^ ^ ^ / ( ! ;.G 2.>.W ) / ^ ^ ^ U M !.M > n.6., _./ ^ ^ ^ ) ! ;.A A %.! _ [ ^ F.",
"S.^ ] b m m J J K K ,.) ^ ^ / j 8.- Z - D h.6., ^ ^ / W b m c c G J K q.W ^ ^ ) g 8.- M ; Z f.9., / ^ ^ E z b c c J J K q.W ^ D.",
"S.W 0 b m m m J J q.y.<.) ^ # h.s - p ; w > f.D W ^ / 9 b b b c c G K m.q._ ^ O h.M - M ; > > d.a Q / / 9 v b m c J J K N.K ) S.",
"W.k 8 0 b b b m J q.5XK *.o.. 9.; j M 8.t ,.9.6.a o.B 9 9 b b c c S J <Xy.,./ . s.; j M f.M D 0.9.i o.V 9 9 b m m c J J <Xm.1.H.",
"v.8 5 4 v b m m J J J K K 2XD 6.- w ,.b.Z - - 1.9.).4 4 4 9 v b m c J K K q.~.%.8.- > ,.n.C - - 6.Z 2X4 8 4 9 9 m m m J G K q._.",
") * 3 4 3 v b b m c J J W ^ X n.,.> j C - j 1.,.s.^ Y 3 4 4 9 b m m m S J R ^ % h.,.; g D - g 1.1.u ^ Y 5 5 5 9 b b m J J J W ^ ",
"[ ( 4 3 4 9 b b m m J ;.^ ^ ) D M - M - j - 9.w /.^ ) f 3 3 9 9 b m c c D ^ ^ ~ Z M - Z - j - 6.> ( ^ ^ f 3 5 9 0 b m m m F ^ ^ ",
"^ ^ ( * 8 8 v v b x W ^ ^ ^ ^ + 6.8.M - 8.6.p R *X^ ^ ) R 7 8 0 9 b b ] ) ^ ^ { 5.1.8.j - ,.6.M Y ^ ^ ^ ) & 7 8 8 v b b ] ) ^ ^ ",
"^ ^ ^ ^ ( W ^ ( _./ ^ ^ ^ ^ ^ ^ + j ,.s ,.d U [ *X^ ^ ^ ^ ( ) ) ) E ) ^ ^ ) ^ [ *X# j >.C ,.> L ^ ^ ^ ^ ^ ^ ) } ).) E ) ^ ^ ^ ^ ",
"8XqX+X>X~.p.@.|.sXXXeXpX+XpXpX+XXX|.L.@.W.XX0X0XgXeX>XG.|.*XE.U.R.eX+X>X>XK.G.XXiXXX0X,XU.1XpX+XXXXXXXH.*XXXeX+XyX&X_.C.|.*X;X+X",
"^ ^ # g 1.1.1.> y ( ^ ^ ^ ^ ^ ^ ) ) ^ ^ ) ^ / A.;X^ ^ ^ U > 1.1.1.j 1 ( ^ ^ ^ X.*X^ ) W ^ ^ E [ ^ ^ ^ ^ ^ ^ P t ,.6.<.Z ; ( ^ ^ ",
"^ + 1.8.1.- M s.,., ) ^ ^ ) ^ ] A J J K K :.W A.pX^ ^ # ,.7.1.- t h.7., / ^ ^ +.*X] x S J J K ,._ ^ ^ ^ / U C 8.7.- > d.6., I ^ ",
") D D - j ; Z 7.M.M y ^ ^ ) k b m m m J J e.t.s.*X^ ( Z ,.- p - p D n.D y ^ ^ ' 3.b x c S J J q.t.&.^ ^ ~ t 8.; t - j j `.6.1 ^ ",
"X n.1.; ; > g - 6.n., ^ ^ h 9 b b m S S J q.yXe.(.^ O n.1.; ; > p - ,.!., ^ ^ V v v b m m S J q.yXe.` ^ Y d.6.w ; t p ; t '.; / ",
"u 8.- > D n.D Z j 6.; F.5.8 9 9 b b m m c J K K w.C.p 8.- > C x.G s t 6.; C.c.8 9 v v b m S J J J K w.(.*.9.- ; p j.1.Z ; 9.s T.",
"C 8.- t ,.c.,.; ; D ; i.:.5 5 8 8 b b m m J J K q.#.e 9.- t ,.c.D w - Z ; S.3.5 3 8 9 b b m S J J K K i.! 9.; > D n.,.t - w Z /.",
"4.n.1.- > > w - ,.x.> ^ ) 6 5 5 2 0 b m m S S K W ^ O n.,.- > t ; - ,.b.> ^ / * 5 5 5 9 b m m m J J Q / # 9.9.; - j p - Z n.> S.",
"Q.Z a ; D ; p - D D Y ^ ^ P 2 3 9 0 0 b m m S B ^ ^ ( j ,.- M - D - a Z & ) ^ ) 2 3 8 9 0 b x m J C ) ) ) g 6.; M - M - e 1.j S.",
"*XX 1.s.t - ,.d.D @ / ^ ^ ^ ) 3.4 8 9 9 b x ! ^ ^ ^ ^ O ,.f.,.; t d.1.h / ^ ^ ^ _ * 8 9 9 v b m a.) ^ ^ ^ # Z h.1.- j d.9.> ^ S.",
"*X^ O w ,.,.1.w # ^ ^ ^ ^ ^ ^ S.U.( [ E ^ / ^ [ +.o.^ o.# g 1.C ,.g $ { ^ ^ ^ ^ ^ ^ ) ( ( E ) S.Y.[ [ ^ ^ ^ U q ,.,.1.j o ^ ^ D.",
"dXoXpXpX,X,X1XpXtXpX9X|.G. XpXfXpX*X:X*XG.V.K.0XpXpXeX*X*X*XW._.2XoXpXpXpXpXpXpXtXpXrXH.V. XpXfXpX*X*X*XG.V.K.0X1X,X_.*X*X*X=X0X",
"S.^ ^ ^ ^ ^ ^ ^ ^ ^ ^ ^ ^ ^ ^ J.*XU o w r % / ^ ^ ^ ^ ^ ^ ^ ^ D.D.^ ^ ^ ^ ^ ^ ^ ^ ) P o w r % Y.*X^ ^ ^ ^ ^ ^ ^ ^ ^ ^ ^ ^ ^ ^ J.",
"S.^ ^ ( _ V &.:.! _ ^ ^ ^ ^ ^ +.w h.8.j d.Z , _ ^ ^ ^ ^ ^ E ;.8.6.&._ ^ ^ ^ ^ ^ P d h.6.t d.D , (.^ ^ ^ ^ ^ _ R ;.:.] E / ^ [ F.",
"A.^ E x m m J J J q.,.^ ^ ^ ) g 9.; M - C f.1.1 ^ ^ ^ ^ x m m J G J K <.( / ^ / e 9.; M - D f.1., ^ ^ ^ ^ x b c c J K K <.( ^ S.",
"Y.E 9 b m S m J J y.<X,.^ ^ U x.g - M : > C f.> Q ^ P b b b m m S J K 5Xr.) / L d.M - M ; > Z f.> T ^ ) z b b b m S J K yXq._ P.",
"rXF 9 9 v m m m G J m.K [.pX*.h.j M j 8.g D 9.,.b.*Xk.9 9 b b m S S J y.e.u.H.u.h.t M g 1.g ,.f.1.-.eXf.8 b b b m S S J y.e.M.iX",
"= 8 4 8 0 b m m m J K K q.( & ,.- ; 1.M.g - > D 8.E 4 4 9 9 v m m S J K K K _ $.1.- ; 1.!.g - > ,.s ' 8 5 8 9 b m m S S J K K ( ",
"^ 6 3 5 5 b b m m S J J E ^ O n.,.> j :.; j 1.,.v.^ * 5 4 4 v v b m c G K $.^ T n.1.> j ,.; j 1.,.$./ * 3 4 2 b b b c c J J &./ ",
"^ _ 3 3 7 9 v m m c S C / ^ U 9.: - M ; ; - d.w %X^ / 2 3 5 0 9 b b c c G ) ^ _ 8.q - Z : > - 8.> ( / / 2 2 5 9 v b b c c G ( ^ ",
"^ ^ Y 2 5 9 9 v m m ! ) ^ ^ ^ e d.1.w - 6.1.j & *X) / ( h 8 8 v b b c C ) ^ ^ [ C d.,.g - 1.1.C & ^ ^ ^ _ h 8 8 v 9 m b C ( ^ ^ ",
"=X.XJ.J.Z.Z.a.z.2X#.F.F.F.F.F.L.a ,.,.C 6.g | H.dX.X#XF.J.l.S.u.U.).P.*X*XF.F.H.wXu ,.1.D 7.d u.F.F.F.S.X.D.Z.C.{.p.Z.Z.S.+.+.J."
};
