/* XPM */
static char *_a6bf0987ce74333ba6e1096e3d355a81OQngijVvyJLWmPC[] = {
/* columns rows colors chars-per-pixel */
"64 64 155 2 ",
"   c black",
".  c #030904",
"X  c #0F0A06",
"o  c #061209",
"O  c #2D1F13",
"+  c #4B3420",
"@  c #257039",
"#  c #28793D",
"$  c #7B5F31",
"%  c #396344",
"&  c #3F6E4C",
"*  c #327E46",
"=  c #7B5C43",
"-  c #86563B",
";  c #A56C48",
":  c #2B8342",
">  c #2E8C47",
",  c #32964C",
"<  c #3E9C57",
"1  c #548448",
"2  c #609753",
"3  c #679974",
"4  c #4BA362",
"5  c #57A96D",
"6  c #6FAA71",
"7  c #64B078",
"8  c #C89A4F",
"9  c #D1865C",
"0  c #C79351",
"q  c #DDBF52",
"w  c #C58D6D",
"e  c #D49776",
"r  c #E09063",
"t  c #E19569",
"y  c #EF9A6A",
"u  c #F09E69",
"i  c #E19971",
"p  c #EF9F72",
"a  c #F09F71",
"s  c #F1A268",
"d  c #F1A468",
"f  c #F5B664",
"g  c #F6BA63",
"h  c #E3A37E",
"j  c #F0A073",
"k  c #F1A479",
"l  c #F1A67C",
"z  c #F5B471",
"x  c #F5B474",
"c  c #F9C75F",
"v  c #FACC5F",
"b  c #FBD15D",
"n  c #FCD55D",
"m  c #FEDE5B",
"M  c #FEDF5B",
"N  c #FDDA5C",
"B  c #FFE35A",
"V  c #F8C361",
"C  c #F8C461",
"Z  c #F9C860",
"A  c #FDDD60",
"S  c #F3DC6D",
"D  c #FDDC6D",
"F  c #FDD976",
"G  c #FCD77E",
"H  c #FFE464",
"J  c #FFE36A",
"K  c #FFE66E",
"L  c #FFE878",
"P  c #FFE879",
"I  c #7AAB86",
"U  c #71B683",
"Y  c #72B784",
"T  c #7EBD8E",
"R  c #AF9E97",
"E  c #93B99D",
"W  c #BFACA5",
"Q  c gray75",
"!  c #D6A082",
"~  c #DBB792",
"^  c #F2A980",
"/  c #F3AE87",
"(  c #F3B38E",
")  c #F4B28E",
"_  c #F5B795",
"`  c #F4B998",
"'  c #F6BC9D",
"]  c #F5BFA1",
"[  c #F7BFA3",
"{  c #8CC49A",
"}  c #98CAA5",
"|  c #99CBA6",
" . c #AFC8A4",
".. c #A5D1B0",
"X. c #B1D7BB",
"o. c #B2D8BC",
"O. c #F9CF92",
"+. c #FCD491",
"@. c #FFEA83",
"#. c #FFEB8D",
"$. c #FFE491",
"%. c #FFED97",
"&. c #FFED98",
"*. c #F7C1A3",
"=. c #F7C7AD",
"-. c #F8C5AA",
";. c #FBD2A7",
":. c #ECC9B9",
">. c #F7CCB4",
",. c #F9C9B1",
"<. c #FACFB8",
"1. c #FACFB9",
"2. c #FBD5B7",
"3. c #F8D2BD",
"4. c #F8D3BE",
"5. c #FFEFA1",
"6. c #FFF1AC",
"7. c #FFF1AD",
"8. c #FFE5B3",
"9. c #FFE6BB",
"0. c #FFF3B6",
"q. c #BEDEC7",
"w. c #DFC9C0",
"e. c #EED2C7",
"r. c #EFD7CE",
"t. c #FAD4C1",
"y. c #FBD7C6",
"u. c #FBD8C5",
"i. c #F9D9C7",
"p. c #FBD8C7",
"a. c #FCD9C9",
"s. c #FCDACB",
"d. c #FBDCCC",
"f. c #FCDFCF",
"g. c #FDDED0",
"h. c #CBE5D2",
"j. c #CCE5D3",
"k. c #D8EBDD",
"l. c #FFF5C1",
"z. c #FEE1D6",
"x. c #FBE6D9",
"c. c #FBE7D9",
"v. c #FFE6DC",
"b. c #FFF8D5",
"n. c #FCECE3",
"m. c #E5F2E8",
"M. c #FFFAE0",
"N. c #FDF1EB",
"B. c #FDF2EC",
"V. c #FFFCEA",
"C. c #F2F8F4",
"Z. c #FEF8F5",
"A. c #FEF9F6",
"S. c #FFFEF4",
"D. c white",
/* pixels */
"D.D.D.D.D.D.D.D.D.D.D.D.D.D.D.D.D.D.D.D.D.D.D.D.D.D.D.D.D.D.D.D.D.D.D.D.D.D.D.D.D.D.D.D.D.D.D.D.D.D.D.D.D.D.D.D.D.D.D.D.D.D.D.D.",
"D.D.D.D.D.D.D.D.D.D.D.D.D.D.D.D.D.D.D.D.D.D.D.D.D.D.D.D.D.D.D.D.D.D.D.D.D.D.D.D.D.D.D.D.D.D.D.D.D.D.D.D.D.D.D.D.D.D.D.D.D.D.D.D.",
"D.D.D.D.D.D.D.D.D.D.D.D.D.D.D.D.D.D.D.D.D.D.D.D.D.D.D.D.D.D.D.D.D.D.D.D.D.D.D.D.D.D.D.D.D.D.D.D.D.D.D.D.D.D.D.D.D.D.D.D.D.D.D.D.",
"D.D.D.D.D.D.D.D.D.D.D.D.D.D.D.D.D.D.D.D.D.D.D.D.D.D.D.D.D.D.D.D.D.D.D.D.D.D.D.D.D.D.D.D.D.D.D.D.D.D.D.D.D.D.D.D.D.D.D.D.D.D.D.D.",
"D.D.D.D.D.D.D.D.D.D.D.D.D.D.D.D.D.D.D.D.D.D.D.D.D.D.D.D.D.D.D.D.D.D.D.D.D.D.D.D.D.D.D.D.D.D.D.D.D.D.D.D.D.D.D.D.D.D.D.D.D.D.D.D.",
"D.D.D.D.D.D.D.D.D.D.D.D.D.D.D.D.D.D.D.D.D.D.D.D.D.D.D.D.D.D.D.D.D.D.D.D.D.D.D.D.D.D.D.D.D.D.D.D.D.D.D.D.D.D.D.D.D.D.D.D.D.D.D.D.",
"D.D.D.D.D.D.D.D.D.D.D.D.D.D.D.D.D.D.D.D.D.D.D.D.D.D.D.D.D.D.D.D.D.D.D.D.D.D.D.D.D.D.D.D.D.D.D.D.D.D.D.D.D.D.D.D.D.D.D.D.D.D.D.D.",
"D.D.D.D.D.D.D.D.D.D.D.D.D.D.D.D.D.D.D.D.D.D.D.D.D.D.D.D.D.D.D.D.D.D.D.D.D.D.D.D.D.D.D.D.D.D.D.D.D.D.D.D.D.D.D.D.D.D.D.D.D.D.D.D.",
"D.D.D.D.D.D.D.D.D.D.D.D.D.D.D.D.D.D.D.D.D.D.D.D.D.D.D.D.D.D.D.D.D.D.D.D.D.D.D.D.D.D.D.D.D.D.D.D.D.D.D.D.D.D.D.D.D.D.D.D.D.D.D.D.",
"D.D.D.D.D.D.D.D.D.D.D.D.D.D.D.D.D.D.D.D.D.D.D.D.D.D.D.D.D.D.D.D.D.D.D.D.D.D.D.D.D.D.D.D.D.D.D.D.D.D.D.D.D.D.D.D.D.D.D.D.D.D.D.D.",
"D.D.D.D.D.D.D.D.D.D.D.D.D.D.D.D.D.D.D.D.D.D.D.D.D.D.D.D.D.D.D.D.D.D.D.D.D.D.D.D.D.D.D.D.D.D.D.D.D.D.D.D.D.D.D.D.D.D.D.D.D.D.D.D.",
"D.D.D.D.D.D.D.D.D.D.D.D.D.D.D.D.D.D.D.D.D.D.D.D.D.D.D.D.D.D.D.D.D.D.D.D.D.D.D.D.D.D.D.D.D.D.D.D.D.D.D.D.D.D.D.D.D.D.D.D.D.D.D.D.",
"D.D.D.D.D.D.D.D.D.D.D.D.D.D.D.D.D.D.D.D.D.D.D.D.D.D.D.D.D.D.D.D.D.D.D.D.D.D.D.D.D.D.D.D.D.D.D.D.D.D.D.D.D.D.D.D.D.D.D.D.D.D.D.D.",
"D.D.D.D.D.D.D.D.D.D.D.D.D.D.D.D.D.D.D.D.D.D.D.D.D.D.D.D.D.D.D.D.D.D.D.D.D.D.D.D.D.D.D.D.D.D.D.D.D.D.D.D.D.D.D.D.D.D.D.D.D.D.D.D.",
"D.D.D.D.D.D.D.D.D.D.D.D.D.D.D.D.D.D.D.D.D.D.D.D.D.D.D.C.h.j.C.D.D.D.D.D.D.D.D.D.D.D.D.D.D.D.D.D.D.D.D.D.D.D.D.D.D.D.D.D.D.D.D.D.",
"D.D.D.D.D.D.D.D.D.D.D.D.D.D.D.D.D.D.D.D.D.D.D.D.o.T < , , , , T C.D.D.D.D.D.D.D.D.D.D.D.D.D.D.D.D.D.D.D.D.D.D.D.D.D.D.D.D.D.D.D.",
"D.D.D.D.D.D.D.D.D.D.D.D.D.D.D.D.D.D.D.D.D.C.| < , , , , , , , , 5 q.U , , 4 { m.D.D.D.D.D.D.D.D.D.D.D.D.D.D.D.D.D.D.D.D.D.D.D.D.",
"D.D.D.D.D.D.D.D.D.D.D.D.D.D.D.D.D.D.D.D.D.< , , , , , , , , , , , , , , , , , , { C.D.D.D.D.D.D.D.D.D.D.D.D.D.D.D.D.D.D.D.D.D.D.",
"D.D.D.D.D.D.D.D.D.D.D.D.D.D.D.D.D.D.D.D.D.m.T , , , , , , , , 5 E 5 , , , , , , , 4 k.D.D.D.D.D.D.D.D.D.D.D.D.D.D.D.D.D.D.D.D.D.",
"D.D.D.D.D.D.D.D.D.D.D.D.D.D.D.D.D.D.D.D.D.D.D.D.q.| T 7 } ..k.D.Q C.7 , , , , , , , , X.D.D.D.D.D.D.D.D.D.D.D.D.D.D.D.D.D.D.D.D.",
"D.D.D.D.D.D.D.D.D.D.D.D.D.D.D.D.D.D.D.D.D.D.D.D.D.S.l.&.P B B B S #.l.q.5 , , , , , , , q.D.D.D.D.D.D.D.D.D.D.D.D.D.D.D.D.D.D.D.",
"D.D.D.D.D.D.D.D.D.D.D.D.D.D.D.D.D.D.D.D.D.D.D.S.7.H B B B B B B B B B H 7.k.| } 7 7 U | m.D.D.D.D.D.D.D.D.D.D.D.D.D.D.D.D.D.D.D.",
"D.D.D.D.D.D.D.D.D.D.D.D.D.D.D.D.D.D.D.D.D.D.b.K B B B B B B B B B B B B B K b.D.D.D.D.D.D.D.D.D.D.D.D.D.D.D.D.D.D.D.D.D.D.D.D.D.",
"D.D.D.D.D.D.D.D.D.D.D.D.D.D.D.D.D.D.D.D.D.l.B B B B B B B B B B B B B B B B B l.D.D.D.D.D.D.D.D.D.D.D.D.D.D.D.D.D.D.D.D.D.D.D.D.",
"D.D.D.D.D.D.D.D.D.D.D.D.D.D.D.D.D.D.D.D.l.B B B B B B B B B B B B B B B B B B B l.D.D.D.D.D.D.D.D.D.D.D.D.D.D.D.D.D.D.D.D.D.D.D.",
"D.D.D.D.D.D.D.D.D.D.D.D.D.D.D.D.D.D.D.M.B B B B B B B B B B B B B B B B B B B B H M.D.D.D.D.D.D.D.D.D.D.D.D.D.D.D.D.D.D.D.D.D.D.",
"D.D.D.D.D.D.D.D.D.D.D.D.D.D.D.D.D.D.D.@.B B B B B B B B B B B B B B B B B B B B B @.D.D.D.D.D.D.D.D.D.D.D.D.D.D.D.D.D.D.D.D.D.D.",
"D.D.D.D.D.D.D.D.D.D.D.D.D.D.D.D.D.D.b.B B B B B B B B M V V g C N B B B B B B B B B b.D.D.D.D.D.D.D.D.D.D.D.D.D.D.D.D.D.D.D.D.D.",
"D.D.D.D.D.D.D.D.D.D.D.D.D.D.D.D.D.D.%.B B B B B B B Z u y y y y y V B B B B B B B B %.D.D.D.D.D.D.D.D.D.D.D.D.D.D.D.D.D.D.D.D.D.",
"D.D.D.D.D.D.D.D.D.D.D.D.D.D.D.D.D.D.@.B B B B B B c y y y y y y y u C B B B B B B B H D.D.D.D.D.D.D.D.D.D.D.D.D.D.D.D.D.D.D.D.D.",
"D.D.D.D.D.D.D.D.D.D.D.D.D.D.D.D.D.D.B B B B B B B ; X 0 y ^ y r g s u M B B B B B B B D.D.D.D.D.D.D.D.D.D.D.D.D.D.D.D.D.D.D.D.D.",
"D.D.D.D.D.D.D.D.D.D.D.D.D.D.D.D.D.D.K B B B B B v -   $ +.v.:.X + M s C B B B B B B B D.D.D.D.D.D.D.D.D.D.D.D.D.D.D.D.D.D.D.D.D.",
"D.D.D.D.D.D.D.D.D.D.D.D.D.D.D.D.D.D.@.B B B B B f r + q 8.v.W   O b y V B B B B B B B D.D.D.D.D.D.D.D.D.D.D.D.D.D.D.D.D.D.D.D.D.",
"D.D.D.D.D.D.D.D.D.D.D.D.D.D.D.D.D.D.5.B B B B B b u 9 ~ v.W v.= 8 d y b B B B B B B L D.D.D.D.D.D.D.D.D.D.D.D.D.D.D.D.D.D.D.D.D.",
"D.D.D.D.D.D.D.D.D.D.D.D.D.D.D.D.D.D.b.B B B B B B s ] W w.w.R z.i y d B B B B B B B 6.D.D.D.D.D.D.D.D.D.D.D.D.D.D.D.D.D.D.D.D.D.",
"D.D.D.D.D.D.D.D.D.D.D.D.D.D.D.D.D.D.D.@.B B B B B n 2.v.v.r.r.r.h u n B B B B B B B V.D.D.D.D.D.D.D.D.D.D.D.D.D.D.D.D.D.D.D.D.D.",
"D.D.D.D.D.D.D.D.D.D.D.D.D.D.D.D.D.D.D.M.B B B B B B F 2.v.v.v.z.x N B B B B B B B 7.D.D.D.D.D.D.D.D.D.D.D.D.D.D.D.D.D.D.D.D.D.D.",
"D.D.D.D.D.D.D.D.D.D.D.D.D.D.D.D.D.D.D.D.l.B B B B B B B J G G D B B B B B B B B P D.D.D.D.D.D.D.D.D.D.D.D.D.D.D.D.D.D.D.D.D.D.D.",
"D.D.D.D.D.D.D.D.D.D.D.D.D.D.D.D.D.D.D.D.D.0.B B B B B B B B B B B B B B B B B P S.D.D.D.D.D.D.D.D.D.D.D.D.D.D.D.D.D.D.D.D.D.D.D.",
"D.D.D.D.D.D.D.D.D.D.D.D.D.D.D.D.D.D.A.3./ y f m B B B B B B B B B B B B B B #.S.D.D.D.D.D.D.D.D.D.D.D.D.D.D.D.D.D.D.D.D.D.D.D.D.",
"D.D.D.D.D.D.D.D.D.D.D.D.D.D.D.D.D.p.k y y y y d V B B B B B B B B B B B m O.n.D.m.I & % 3 h.D.D.D.D.D.D.D.D.D.D.D.D.D.D.D.D.D.D.",
"D.D.D.D.D.D.D.D.D.D.D.D.D.D.D.A.a.v.,.y y y y y y ;.$.J B B B B B M c f y y y l 6 o     . * D.D.D.D.D.D.D.D.D.D.D.D.D.D.D.D.D.D.",
"D.D.D.D.D.D.D.D.D.D.D.D.D.D.D.a.v.v.z.y y y y y -.v.v.v.v.9.2.x d y u y y y y y 1 , , , , : D.D.D.D.D.D.D.D.D.D.D.D.D.D.D.D.D.D.",
"D.D.D.D.D.D.D.D.D.D.D.D.D.D.D.y.v.v.v.k y y y / v.v.v.v.v.v.v.-.y y y y y y y y 2 : # : # , D.D.D.D.D.D.D.D.D.D.D.D.D.D.D.D.D.D.",
"D.D.D.D.D.D.D.D.D.D.D.D.D.D.D.A.y.v.v.p y y y 3.v.v.v.v.v.v.n.g.y y y y y y y y 1 : : > # : D.D.D.D.D.D.D.D.D.D.D.D.D.D.D.D.D.D.",
"D.D.D.D.D.D.D.D.D.D.D.D.D.D.D.D.D.N.v.c.c.l y v.v.v.v.v.v.v.v.v.l y y y y y y y 2 , , , , , D.D.D.D.D.D.D.D.D.D.D.D.D.D.D.D.D.D.",
"D.D.D.D.D.D.D.D.D.D.D.D.D.D.D.D.D.D.D.D.A.y / v.v.v.v.v.v.v.v.v.) y y y a ` y y 1 # > , @ : D.D.D.D.D.D.D.D.D.D.D.D.D.D.D.D.D.D.",
"D.D.D.D.D.D.D.D.D.D.D.D.D.D.D.D.D.D.D.D.c.y ' v.v.v.v.v.v.v.v.v./ y y y y N.D.A. ., , , , T D.D.D.D.D.D.D.D.D.D.D.D.D.D.D.D.D.D.",
"D.D.D.D.D.D.D.D.D.D.D.D.D.D.D.D.D.D.D.D.>.y [ v.v.v.v.v.v.v.v.v./ y y y y p.D.D.D.D.m.k.D.D.D.D.D.D.D.D.D.D.D.D.D.D.D.D.D.D.D.D.",
"D.D.D.D.D.D.D.D.D.D.D.D.D.D.D.D.D.D.D.D.>.y [ v.v.v.v.v.v.v.v.v.l y y y y ` D.D.D.D.D.D.D.D.D.D.D.D.D.D.D.D.D.D.D.D.D.D.D.D.D.D.",
"D.D.D.D.D.D.D.D.D.D.D.D.D.D.D.D.D.D.D.D.>.y ] v.v.v.v.v.v.v.v.v.y y y y y / D.D.D.D.D.D.D.D.D.D.D.D.D.D.D.D.D.D.D.D.D.D.D.D.D.D.",
"D.D.D.D.D.D.D.D.D.D.D.D.D.D.D.D.D.D.D.D.>.y / v.v.v.v.v.v.v.v.<.y y y y y y D.D.D.D.D.D.D.D.D.D.D.D.D.D.D.D.D.D.D.D.D.D.D.D.D.D.",
"D.D.D.D.D.D.D.D.D.D.D.D.D.D.D.D.D.D.D.D.c.y u g.v.v.v.v.v.v.v.) y y y y y y D.D.D.D.D.D.D.D.D.D.D.D.D.D.D.D.D.D.D.D.D.D.D.D.D.D.",
"D.D.D.D.D.D.D.D.D.D.D.D.D.D.D.D.D.D.D.D.D.p y ,.v.v.v.v.v.v.a.y y y y y y y D.D.D.D.D.D.D.D.D.D.D.D.D.D.D.D.D.D.D.D.D.D.D.D.D.D.",
"D.D.D.D.D.D.D.D.D.D.D.D.D.D.D.D.D.D.D.D.D.>.y a g.v.v.v.v.g.^ y y y y y y y 3.D.D.D.D.D.D.D.D.D.D.D.D.D.D.D.D.D.D.D.D.D.D.D.D.D.",
"D.D.D.D.D.D.D.D.D.D.D.D.D.D.D.D.D.D.D.D.D.N.y u ^ g.v.v.g.^ u y y y y y y y y p.D.D.D.D.D.D.D.D.D.D.D.D.D.D.D.D.D.D.D.D.D.D.D.D.",
"D.D.D.D.D.D.D.D.D.D.D.D.D.D.D.D.D.D.D.D.D.3.t.*.p y / / r e y 9 y y y y y y y y y.D.D.D.D.D.D.D.D.D.D.D.D.D.D.D.D.D.D.D.D.D.D.D.",
"D.D.D.D.D.D.D.D.D.D.D.D.D.D.D.D.D.D.D.D.f.v.v.v.y.y y w z.v.z.( y y y y y y y y y 3.D.D.D.D.D.D.D.D.D.D.D.D.D.D.D.D.D.D.D.D.D.D.",
"D.D.D.D.D.D.D.D.D.D.D.D.D.D.D.D.D.D.D.D.g.v.v.v.v._ t e.v.v.v.z.j y y y y y y y y y / c.D.D.D.D.D.D.D.D.D.D.D.D.D.D.D.D.D.D.D.D.",
"D.D.D.D.D.D.D.D.D.D.D.D.D.D.D.D.D.D.D.D.v.v.v.v.v.-.! v.v.v.v.v.' y y y y y y y y y y y p.d.N.D.D.D.D.D.D.D.D.D.D.D.D.D.D.D.D.D.",
"D.D.D.D.D.D.D.D.D.D.D.D.D.D.D.D.D.D.D.D.y.v.v.v.v.<.] v.v.v.v.v.] y y p i.] y y y y y y v.v.v.p.D.D.D.D.D.D.D.D.D.D.D.D.D.D.D.D.",
"D.D.D.D.D.D.D.D.D.D.D.D.D.D.D.D.D.D.D.D.Z.y.v.v.v.,.t.v.v.v.v.v.[ y ( B.D.D.B.3.` p y p v.v.v.y.D.D.D.D.D.D.D.D.D.D.D.D.D.D.D.D.",
"D.D.D.D.D.D.D.D.D.D.D.D.D.D.D.D.D.D.D.D.D.D.Z.c.A.D.D.v.y.z.v.z.=.c.D.D.D.D.D.D.D.D.N.c.v.c.A.D.D.D.D.D.D.D.D.D.D.D.D.D.D.D.D.D.",
"D.D.D.D.D.D.D.D.D.D.D.D.D.D.D.D.D.D.D.D.D.D.D.D.D.D.D.D.D.D.D.D.D.D.D.D.D.D.D.D.D.D.D.D.D.D.D.D.D.D.D.D.D.D.D.D.D.D.D.D.D.D.D.D."
};
